<?xml version="1.0" encoding="UTF-8" standalone="no"?>
<svg
   xmlns:dc="http://purl.org/dc/elements/1.1/"
   xmlns:cc="http://creativecommons.org/ns#"
   xmlns:rdf="http://www.w3.org/1999/02/22-rdf-syntax-ns#"
   xmlns:svg="http://www.w3.org/2000/svg"
   xmlns="http://www.w3.org/2000/svg"
   viewBox="0 0 561.46667 307.53333"
   height="307.53333"
   width="561.46667"
   xml:space="preserve"
   id="svg2"
   version="1.1"><metadata
     id="metadata8"><rdf:RDF><cc:Work
         rdf:about=""><dc:format>image/svg+xml</dc:format><dc:type
           rdf:resource="http://purl.org/dc/dcmitype/StillImage" /></cc:Work></rdf:RDF></metadata><defs
     id="defs6"><clipPath
       id="clipPath36"
       clipPathUnits="userSpaceOnUse"><path
         id="path34"
         d="m 250.137,2067.13 c -5.403,-24.85 -12.121,-55.57 -20.215,-92.22 -8.086,-36.68 -16.731,-77.89 -25.891,-123.7 -9.148,-45.84 -19.14,-95.69 -29.89,-149.62 -10.813,-53.92 -21.055,-109.96 -30.743,-168.21 17.247,56.08 37.715,117.01 61.454,182.77 23.711,65.76 50.949,129.4 81.671,190.84 30.743,61.45 64.141,116.97 100.282,166.58 36.105,49.59 74.64,86.24 115.617,109.99 43.125,24.78 89.492,35.3 139.101,31.5 49.579,-3.75 92.715,-18.04 129.375,-42.83 35.586,-23.75 61.719,-55.27 78.446,-94.62 16.711,-39.34 25.597,-82.78 26.679,-130.17 1.067,-47.49 -4.843,-97.61 -17.781,-150.41 -12.929,-52.83 -31.289,-104.34 -55,-154.48 -23.711,-50.1 -51.504,-97.29 -83.281,-141.49 -31.828,-44.25 -66.066,-81.45 -102.707,-111.61 -19.402,-16.15 -40.43,-31.01 -63.074,-44.47 -22.637,-13.51 -45.832,-24.53 -69.532,-33.17 -42.07,-14.01 -77.91,-16.99 -107.55,-8.87 -29.676,8.08 -53.934,23.17 -72.782,45.29 -18.878,22.08 -32.617,49.05 -41.242,80.85 -8.64,31.8 -12.937,63.9 -12.937,96.21 l 11.316,1.66 c -1.082,-38.84 3.762,-73.89 14.563,-105.13 10.761,-31.3 26.132,-56.6 46.093,-76.02 19.934,-19.43 43.907,-31.83 71.973,-37.18 28.027,-5.46 58.223,-1.14 90.566,12.9 36.641,16.18 69.532,43.12 98.645,80.91 29.117,37.7 53.895,81.36 74.402,130.95 20.469,49.59 36.387,102.97 47.703,160.13 11.321,57.13 17.532,112.94 18.594,167.37 1.067,54.45 -2.969,105.14 -12.117,152.05 -9.18,46.89 -24.023,85.45 -44.484,115.63 -15.098,20.49 -31.27,35.31 -48.516,44.47 -17.254,9.16 -35.047,13.48 -53.367,12.95 -18.34,-0.55 -36.66,-5.43 -54.981,-14.57 -18.359,-9.18 -35.586,-21.29 -51.757,-36.36 -34.532,-31.32 -66.868,-71.48 -97.043,-120.5 -30.184,-49.09 -58.516,-101.89 -84.903,-158.49 -26.426,-56.6 -50.125,-113.76 -71.16,-171.45 -21.027,-57.68 -38.574,-110.8 -52.578,-159.32 -10.773,-35.55 -21.582,-79.8 -32.336,-132.6 C 109.98,1339.86 101.074,1283.5 94.082,1223.7 87.0508,1163.85 82.7539,1102.63 81.1328,1040.12 79.5117,977.578 82.7539,918.531 90.832,863.051 98.9063,807.512 112.383,757.66 131.27,713.41 150.117,669.211 176.797,635.809 211.316,613.141 161.711,645.488 122.09,692.172 92.4492,753.051 62.793,813.98 40.6914,883 26.1406,960.059 11.582,1037.14 3.24219,1119.9 1.07422,1208.32 -1.07422,1296.71 0,1385.14 4.30469,1473.57 c 4.32812,88.37 11.08591,174.1 20.22661,257.15 9.1289,82.99 17.5,157.66 25.0585,223.97 7.5391,66.32 13.4766,121.86 17.793,166.56 4.2969,44.79 4.2969,72.52 0,83.3 4.2969,14.03 18.3281,22.91 42.0512,26.72 23.691,3.77 47.441,0.78 71.152,-8.9 23.711,-9.73 43.672,-26.96 59.844,-51.77 16.172,-24.8 19.406,-59.31 9.707,-103.47 z" /></clipPath><linearGradient
       id="linearGradient54"
       spreadMethod="pad"
       gradientTransform="matrix(2878.93,-1703.22,-1703.22,-2878.93,-282.556,1850.65)"
       gradientUnits="userSpaceOnUse"
       y2="0"
       x2="1"
       y1="0"
       x1="0"><stop
         id="stop38"
         offset="0"
         style="stop-opacity:1;stop-color:#80ccd7" /><stop
         id="stop40"
         offset="0.141509"
         style="stop-opacity:1;stop-color:#4f9da8" /><stop
         id="stop42"
         offset="0.283019"
         style="stop-opacity:1;stop-color:#70c956" /><stop
         id="stop44"
         offset="0.443396"
         style="stop-opacity:1;stop-color:#badc2f" /><stop
         id="stop46"
         offset="0.518868"
         style="stop-opacity:1;stop-color:#f0d725" /><stop
         id="stop48"
         offset="0.650943"
         style="stop-opacity:1;stop-color:#f27d23" /><stop
         id="stop50"
         offset="0.816038"
         style="stop-opacity:1;stop-color:#ea43a5" /><stop
         id="stop52"
         offset="1"
         style="stop-opacity:1;stop-color:#bf46aa" /></linearGradient><clipPath
       id="clipPath64"
       clipPathUnits="userSpaceOnUse"><path
         id="path62"
         d="m 733.699,1070.83 c 8.625,6.5 21.563,16.21 38.821,29.14 17.226,12.95 35.585,28.02 54.98,45.28 19.414,17.24 38.828,35.81 58.223,55.78 19.414,19.95 35.586,39.88 48.523,59.82 12.942,19.98 21.027,38.56 24.27,55.85 3.222,17.22 -1.114,32.32 -12.95,45.27 -12.941,12.94 -26.699,16.15 -41.242,9.69 -14.558,-6.44 -29.394,-19.16 -44.48,-38 -15.117,-18.87 -29.668,-41.51 -43.672,-67.92 -14.004,-26.44 -26.953,-52.57 -38.809,-78.45 -11.886,-25.89 -21.582,-49.61 -29.101,-71.17 -7.559,-21.56 -12.422,-36.65 -14.563,-45.29 z m 87.317,321.86 c 4.304,2.16 10.781,4.28 19.422,6.49 32.335,6.44 61.445,3.25 87.335,-9.73 8.614,-4.31 17.227,-10.8 25.879,-19.41 13.993,-15.11 19.649,-32.08 16.973,-50.92 -2.695,-18.89 -10.781,-38.82 -24.258,-59.85 -13.496,-21.05 -30.48,-42.35 -50.949,-63.9 -20.488,-21.57 -41.23,-41.49 -62.254,-59.81 -21.027,-18.36 -40.996,-34.51 -59.844,-48.52 -18.879,-14.04 -33.164,-24.28 -42.859,-30.77 -21.586,-77.598 -21.828,-128.84 -0.793,-153.61 21.016,-24.789 60.633,-26.43 118.867,-4.871 17.227,6.481 36.094,15.383 56.602,26.699 20.468,11.321 41.23,26.66 62.254,46.102 21.027,19.398 42.309,43.1 63.889,71.16 21.55,28.01 42.06,61.44 61.45,100.26 l 9.7,-4.86 c -21.57,-43.12 -45.55,-81.14 -71.96,-114.02 -26.44,-32.88 -53.919,-60.4 -82.482,-82.489 -28.574,-22.11 -57.422,-39.051 -86.523,-50.93 -29.121,-11.84 -57.16,-18.852 -84.102,-21 -31.289,2.148 -57.402,15.078 -78.437,38.809 -21.035,23.679 -36.133,53.089 -45.293,88.14 -9.141,34.99 -12.383,73.02 -9.707,114.02 2.715,40.95 10.781,80.59 24.265,118.87 13.469,38.24 32.883,72.21 58.235,101.88 25.312,29.64 56.855,50.39 94.59,62.26 z" /></clipPath><linearGradient
       id="linearGradient82"
       spreadMethod="pad"
       gradientTransform="matrix(2878.95,-1703.23,-1703.23,-2878.95,-307.607,1808.31)"
       gradientUnits="userSpaceOnUse"
       y2="0"
       x2="1"
       y1="0"
       x1="0"><stop
         id="stop66"
         offset="0"
         style="stop-opacity:1;stop-color:#80ccd7" /><stop
         id="stop68"
         offset="0.141509"
         style="stop-opacity:1;stop-color:#4f9da8" /><stop
         id="stop70"
         offset="0.283019"
         style="stop-opacity:1;stop-color:#70c956" /><stop
         id="stop72"
         offset="0.443396"
         style="stop-opacity:1;stop-color:#badc2f" /><stop
         id="stop74"
         offset="0.518868"
         style="stop-opacity:1;stop-color:#f0d725" /><stop
         id="stop76"
         offset="0.650943"
         style="stop-opacity:1;stop-color:#f27d23" /><stop
         id="stop78"
         offset="0.816038"
         style="stop-opacity:1;stop-color:#ea43a5" /><stop
         id="stop80"
         offset="1"
         style="stop-opacity:1;stop-color:#bf46aa" /></linearGradient><clipPath
       id="clipPath92"
       clipPathUnits="userSpaceOnUse"><path
         id="path90"
         d="m 1271.45,2084.89 c 16.69,5.39 33.14,4.57 49.31,-2.43 16.18,-7.03 29.65,-18.89 40.43,-35.57 10.78,-16.75 12.95,-36.41 6.49,-59.05 -10.81,-34.52 -23.75,-76 -38.83,-124.52 -15.1,-48.53 -31.29,-101.89 -48.52,-160.1 58.22,-3.24 117.27,-3.24 177.09,0 59.86,3.24 115.65,12.93 167.4,29.08 51.74,16.2 97.03,40.18 135.84,71.98 38.83,31.8 66.31,74.68 82.48,128.6 2.15,4.27 4.32,5.35 6.48,3.24 4.29,0 5.4,-2.19 3.23,-6.49 -16.17,-56.08 -44.23,-100.54 -84.1,-133.42 -39.9,-32.92 -86.52,-57.42 -139.89,-73.6 -53.36,-16.15 -110.52,-25.86 -171.44,-29.1 -60.94,-3.24 -121.03,-3.24 -180.31,0 -6.48,-20.48 -12.71,-41.53 -18.6,-63.1 -5.94,-21.55 -12.14,-43.11 -18.61,-64.67 -14.01,-51.77 -28.06,-109.7 -42.06,-173.87 -14.01,-64.17 -26.68,-129.36 -38,-195.69 -11.32,-66.29 -19.68,-130.17 -25.07,-191.63 -5.4,-61.48 -6.72,-114.55 -4.04,-159.3 2.69,-44.73 11.05,-78.691 25.07,-101.891 14,-23.187 35.02,-29.39 63.09,-18.629 13.99,7.579 30.71,20.532 50.11,38.852 19.43,18.34 42.31,44.457 68.75,78.418 26.4,33.961 56.61,76.84 90.56,128.59 33.96,51.72 72.5,114.82 115.65,189.2 0,4.31 2.13,5.41 6.46,3.24 2.16,-3.24 2.69,-5.38 1.62,-6.46 -56.08,-98.14 -104.86,-177.09 -146.38,-236.91 -41.51,-59.851 -77.37,-105.68 -107.53,-137.512 -30.2,-31.789 -55.28,-52.796 -75.21,-63.058 -19.96,-10.238 -35.34,-15.36 -46.1,-15.36 -4.32,0 -9.69,1.079 -16.16,3.219 -31.29,8.68 -55.01,27.762 -71.17,57.422 -16.17,29.68 -28.01,62.027 -35.56,97.027 -7.56,35.043 -11.88,69.274 -12.95,102.731 -1.08,33.371 -1.08,58.181 0,74.381 3.23,51.72 8.35,106.16 15.35,163.34 7.03,57.16 15.62,114.53 25.9,172.26 10.23,57.63 21.27,114.55 33.14,170.6 11.84,56.08 23.7,108.9 35.57,158.51 -18.34,2.14 -35.84,4.28 -52.54,6.44 -16.74,2.16 -32.64,4.33 -47.73,6.49 l -24.26,1.64 c -56.039,6.43 -99.711,6.43 -131,0 -31.25,-6.5 -54.98,-15.68 -71.144,-27.52 -19.422,-12.94 -31.805,-28.56 -37.207,-46.89 -2.157,-3.23 -4.305,-4.89 -6.473,-4.89 -3.223,0 -4.844,2.17 -4.844,6.49 9.696,22.64 22.91,40.14 39.617,52.59 16.731,12.36 41.809,22.33 75.207,29.89 33.418,7.54 79.239,8.08 137.464,1.65 l 24.26,-3.25 c 15.09,-2.18 31.26,-4.06 48.52,-5.65 17.24,-1.63 35.03,-3.53 53.37,-5.67 10.76,44.19 21.02,85.94 30.74,125.34 9.7,39.34 18.32,74.13 25.86,104.32 7.54,30.16 16.17,63.08 25.89,98.63 6.47,22.64 18.04,36.66 34.78,42.06 z" /></clipPath><linearGradient
       id="linearGradient110"
       spreadMethod="pad"
       gradientTransform="matrix(2879,-1703.26,-1703.26,-2879,-51.7732,2240.79)"
       gradientUnits="userSpaceOnUse"
       y2="0"
       x2="1"
       y1="0"
       x1="0"><stop
         id="stop94"
         offset="0"
         style="stop-opacity:1;stop-color:#80ccd7" /><stop
         id="stop96"
         offset="0.141509"
         style="stop-opacity:1;stop-color:#4f9da8" /><stop
         id="stop98"
         offset="0.283019"
         style="stop-opacity:1;stop-color:#70c956" /><stop
         id="stop100"
         offset="0.443396"
         style="stop-opacity:1;stop-color:#badc2f" /><stop
         id="stop102"
         offset="0.518868"
         style="stop-opacity:1;stop-color:#f0d725" /><stop
         id="stop104"
         offset="0.650943"
         style="stop-opacity:1;stop-color:#f27d23" /><stop
         id="stop106"
         offset="0.816038"
         style="stop-opacity:1;stop-color:#ea43a5" /><stop
         id="stop108"
         offset="1"
         style="stop-opacity:1;stop-color:#bf46aa" /></linearGradient><clipPath
       id="clipPath120"
       clipPathUnits="userSpaceOnUse"><path
         id="path118"
         d="m 1704.06,1315.05 c 11.86,-5.41 22.64,-17.25 32.35,-35.56 9.7,-18.37 17.22,-45.29 22.63,-80.88 l -11.33,-1.61 c -1.09,9.68 -3.49,21.56 -7.26,35.56 -3.79,14 -8.91,27.22 -15.37,39.62 -6.48,12.4 -14.55,21.87 -24.25,28.31 -9.72,6.47 -21.58,7.55 -35.59,3.25 -22.63,-7.57 -42.32,-25.34 -59.03,-53.38 -16.74,-28.03 -30.19,-60.09 -40.43,-96.21 -10.27,-36.13 -16.98,-72.79 -20.23,-109.97 -3.23,-37.2 -2.42,-68.739 2.43,-94.621 4.85,-25.879 14,-43.118 27.49,-51.77 13.47,-8.609 32.07,-1.59 55.82,21.051 17.22,17.242 34.2,40.648 50.94,70.32 16.69,29.66 31.78,61.46 45.28,95.42 13.46,33.99 25.05,67.4 34.78,100.28 9.69,32.88 17.22,60.66 22.63,83.31 2.15,12.93 4.28,25.57 6.47,37.97 2.15,12.4 4.86,24.54 8.08,36.43 3.24,16.16 12.38,26.11 27.5,29.91 15.08,3.75 30.99,2.43 47.7,-4.05 16.71,-6.46 30.74,-17.25 42.07,-32.34 11.32,-15.12 14.8,-33.44 10.5,-54.99 -3.22,-15.12 -10.5,-37.77 -21.83,-67.93 -11.32,-30.21 -22.91,-63.09 -34.78,-98.66 -11.88,-35.6 -23.2,-71.41 -33.95,-107.53 -10.78,-36.171 -17.79,-68.48 -21.04,-97.05 -3.23,-28.559 -1.07,-51.2 6.47,-67.93 7.55,-16.699 23.18,-22.379 46.9,-16.969 5.38,2.16 10.25,4.02 14.56,5.649 4.3,1.609 9.14,4.039 14.56,7.261 19.41,14.039 37.73,34.539 54.98,61.481 17.24,26.918 32.89,56.047 46.91,87.34 13.99,31.218 26.4,62.518 37.21,93.788 10.75,31.24 18.83,58.21 24.25,80.85 l 11.32,-3.19 c -6.49,-22.65 -15.12,-49.9 -25.89,-81.7 -10.78,-31.82 -23.43,-63.62 -37.98,-95.42 -14.57,-31.801 -30.75,-61.43 -48.54,-88.961 -17.77,-27.488 -36.93,-48.231 -57.42,-62.258 -11.86,-8.609 -25.33,-14.262 -40.42,-16.973 -15.12,-2.699 -29.12,-0.269 -42.04,7.282 -20.5,10.761 -34.78,32.32 -42.86,64.679 -8.1,32.321 -12.69,67.942 -13.76,106.743 -1.09,38.828 -0.28,76.548 2.44,113.198 2.67,36.65 5.1,64.17 7.28,82.49 -6.48,-20.48 -14.04,-43.44 -22.64,-68.72 -8.66,-25.35 -18.61,-50.98 -29.93,-76.82 -11.31,-25.88 -24.02,-50.422 -38.02,-73.609 -14.02,-23.172 -28.58,-41.801 -43.66,-55.789 -23.72,-22.641 -46.9,-30.161 -69.55,-22.641 -24.81,8.621 -46.64,31.269 -65.49,67.918 -18.88,36.652 -31.55,77.351 -38.01,122.101 -6.46,44.73 -5.1,88.4 4.05,131.02 9.13,42.58 29.91,74.65 62.26,96.21 10.76,7.52 24.26,13.19 40.45,16.99 16.15,3.75 32.33,5.68 48.5,5.68 16.16,0 31.79,-1.35 46.91,-4.05 15.07,-2.71 26.93,-6.22 35.58,-10.53 z" /></clipPath><linearGradient
       id="linearGradient138"
       spreadMethod="pad"
       gradientTransform="matrix(2879.04,-1703.28,-1703.28,-2879.04,-79.0958,2194.64)"
       gradientUnits="userSpaceOnUse"
       y2="0"
       x2="1"
       y1="0"
       x1="0"><stop
         id="stop122"
         offset="0"
         style="stop-opacity:1;stop-color:#80ccd7" /><stop
         id="stop124"
         offset="0.141509"
         style="stop-opacity:1;stop-color:#4f9da8" /><stop
         id="stop126"
         offset="0.283019"
         style="stop-opacity:1;stop-color:#70c956" /><stop
         id="stop128"
         offset="0.443396"
         style="stop-opacity:1;stop-color:#badc2f" /><stop
         id="stop130"
         offset="0.518868"
         style="stop-opacity:1;stop-color:#f0d725" /><stop
         id="stop132"
         offset="0.650943"
         style="stop-opacity:1;stop-color:#f27d23" /><stop
         id="stop134"
         offset="0.816038"
         style="stop-opacity:1;stop-color:#ea43a5" /><stop
         id="stop136"
         offset="1"
         style="stop-opacity:1;stop-color:#bf46aa" /></linearGradient><clipPath
       id="clipPath148"
       clipPathUnits="userSpaceOnUse"><path
         id="path146"
         d="m 2163.37,1423.4 c 77.62,80.9 143.12,156.35 196.48,226.41 53.38,70.09 96.77,134.26 130.21,192.5 33.4,58.21 57.65,110.77 72.78,157.67 15.08,46.91 23.7,88.13 25.86,123.75 2.16,28 0.26,52.54 -5.65,73.58 -5.94,20.99 -14.83,39.05 -26.68,54.17 -21.58,25.86 -43.15,34.75 -64.69,26.68 -21.58,-8.08 -43.43,-27.78 -65.51,-59.03 -22.12,-31.27 -43.65,-71.72 -64.7,-121.28 -21.01,-49.61 -40.97,-102.44 -59.84,-158.49 -18.86,-56.09 -36.38,-112.99 -52.55,-170.63 -16.17,-57.72 -30.47,-110.8 -42.86,-159.32 -12.41,-48.5 -22.39,-89.5 -29.91,-122.91 -7.56,-33.44 -11.89,-54.45 -12.94,-63.1 z m 90.56,742.37 c 23.71,38.78 53.63,72.2 89.76,100.25 36.11,28.03 76.83,41.5 122.11,40.43 39.88,-2.17 72.77,-18.32 98.63,-48.54 11.88,-15.05 21.29,-33.69 28.32,-55.76 7,-22.13 9.44,-48.26 7.27,-78.42 -2.15,-36.69 -11.32,-79.29 -27.48,-127.77 -16.17,-48.52 -41.52,-102.69 -76.03,-162.55 -34.51,-59.84 -79.24,-125.65 -134.22,-197.32 -55,-71.72 -122.39,-149.06 -202.17,-232.08 -3.23,-17.24 -8.64,-44.76 -16.16,-82.49 -7.55,-37.76 -14.84,-80.06 -21.83,-126.93 -7.02,-46.94 -12.15,-95.2 -15.36,-144.76 -3.25,-49.61 -2.73,-95.182 1.61,-136.658 4.29,-41.492 13.75,-75.731 28.31,-102.711 14.54,-26.91 36.92,-40.449 67.1,-40.449 20.49,0 41.23,10.82 62.28,32.379 21.02,21.558 41.22,49.289 60.64,83.308 19.4,33.961 37.45,70.321 54.19,109.141 16.7,38.79 30.98,75.2 42.83,109.17 11.88,33.98 24.81,73.59 38.83,118.88 l 9.71,-1.64 c -14.03,-46.36 -27.25,-86.81 -39.63,-121.28 -12.41,-34.54 -27.24,-71.72 -44.46,-111.618 -17.27,-39.883 -35.86,-76.813 -55.82,-110.782 -19.96,-33.961 -40.7,-62.269 -62.25,-84.91 -21.57,-22.648 -43.68,-33.961 -66.32,-33.961 -28.05,1.082 -52.31,14.571 -72.77,40.449 -20.49,25.883 -37.19,56.602 -50.14,92.192 -12.94,35.582 -23.2,71.39 -30.71,107.558 -7.55,36.082 -12.4,64.372 -14.56,84.892 -6.49,59.3 -8.91,122.12 -7.29,188.39 1.62,66.33 6.47,133.44 14.56,201.39 8.08,67.92 19.4,135.29 33.96,202.13 14.57,66.84 30.98,130.46 49.32,190.86 18.33,60.35 38.26,116.18 59.86,167.38 21.55,51.19 44.19,95.16 67.91,131.83 z" /></clipPath><linearGradient
       id="linearGradient166"
       spreadMethod="pad"
       gradientTransform="matrix(2879,-1703.26,-1703.26,-2879,258.075,2764.52)"
       gradientUnits="userSpaceOnUse"
       y2="0"
       x2="1"
       y1="0"
       x1="0"><stop
         id="stop150"
         offset="0"
         style="stop-opacity:1;stop-color:#80ccd7" /><stop
         id="stop152"
         offset="0.141509"
         style="stop-opacity:1;stop-color:#4f9da8" /><stop
         id="stop154"
         offset="0.283019"
         style="stop-opacity:1;stop-color:#70c956" /><stop
         id="stop156"
         offset="0.443396"
         style="stop-opacity:1;stop-color:#badc2f" /><stop
         id="stop158"
         offset="0.518868"
         style="stop-opacity:1;stop-color:#f0d725" /><stop
         id="stop160"
         offset="0.650943"
         style="stop-opacity:1;stop-color:#f27d23" /><stop
         id="stop162"
         offset="0.816038"
         style="stop-opacity:1;stop-color:#ea43a5" /><stop
         id="stop164"
         offset="1"
         style="stop-opacity:1;stop-color:#bf46aa" /></linearGradient><clipPath
       id="clipPath176"
       clipPathUnits="userSpaceOnUse"><path
         id="path174"
         d="m 2537.89,713.32 c -12.95,-31.238 -36.23,-57.199 -69.39,-77.75 -8.79,-3.082 -17.55,-5.75 -25.94,-8.058 -8.77,-2.282 -17.93,-3.024 -27.46,-3.024 -25.92,-1.156 -44.22,9.922 -55.29,33.934 -10.68,25.547 -11.82,57.949 -3.81,96.867 8,38.859 20.59,78.512 37.74,118.961 17.56,40.41 36.63,78.551 57.59,114.77 20.97,36.25 39.66,65.57 55.68,88.06 12.95,-46.12 24.78,-91.471 35.08,-134.978 9.92,-43.832 15.24,-85.012 15.24,-123.922 0,-38.5 -6.47,-73.598 -19.44,-104.86 z m 197.15,592.58 c -49.57,-28.6 -95.7,-64.8 -138.81,-109.05 -16.39,50.71 -32.4,98.76 -48.05,144.91 -15.64,45.76 -26.3,87.32 -32.02,124.28 -6.1,37.4 -3.82,69.41 7.25,96.12 10.67,27.08 35.09,46.51 72.82,58.33 18.3,5.37 35.47,3.82 51.48,-4.98 16.4,-8.36 27.46,-22.11 33.95,-40.4 7.6,-20.21 8.37,-46.91 2.66,-78.92 -6.09,-32.4 -21.74,-69.81 -47.67,-111.72 l 9.53,-4.95 c 27.08,44.23 43.48,83.11 49.2,116.67 6.1,33.16 4.58,61.4 -3.82,83.9 -7.61,19.42 -17.91,33.17 -30.89,41.18 -12.96,7.99 -27.08,12.2 -42.7,12.2 -15.63,0 -31.64,-3.47 -47.66,-10.67 -16.4,-6.85 -30.9,-16.39 -43.86,-28.25 -33.17,-27.8 -56.05,-60.61 -67.88,-98.36 -11.81,-37.77 -16.4,-78.91 -13.72,-123.16 2.67,-44.24 9.9,-90.37 21.73,-138.03 11.82,-48.05 24.41,-96.51 37.37,-144.91 -17.14,-23.65 -36.98,-54.56 -59.1,-92.27 -22.12,-37.761 -41.95,-77.41 -59.88,-118.621 -17.9,-41.551 -30.87,-82.359 -39.66,-122.398 -8.38,-39.66 -6.85,-73.571 4.98,-101.813 11.82,-27.859 33.55,-41.968 64.81,-41.968 26.7,0 51.11,6.902 72.46,21.011 21.73,14.078 40.41,29.34 56.05,46.141 15.64,16.758 32.03,38.867 49.18,67.109 20.61,33.551 34.71,68.258 41.96,105.219 7.62,36.609 10.68,73.219 9.15,110.609 -1.91,37.351 -6.85,74.731 -15.62,112.461 -8.41,37.76 -18.31,74.78 -29,111.74 43.09,43.1 89.22,78.94 138.42,108.3 5.73,3.42 11.44,6.49 17.16,9.54 v 11.42 c -6.47,-3.41 -13.35,-6.85 -19.82,-10.67 z" /></clipPath><linearGradient
       id="linearGradient194"
       spreadMethod="pad"
       gradientTransform="matrix(2878.87,-1703.18,-1703.18,-2878.87,124.482,2538.46)"
       gradientUnits="userSpaceOnUse"
       y2="0"
       x2="1"
       y1="0"
       x1="0"><stop
         id="stop178"
         offset="0"
         style="stop-opacity:1;stop-color:#80ccd7" /><stop
         id="stop180"
         offset="0.141509"
         style="stop-opacity:1;stop-color:#4f9da8" /><stop
         id="stop182"
         offset="0.283019"
         style="stop-opacity:1;stop-color:#70c956" /><stop
         id="stop184"
         offset="0.443396"
         style="stop-opacity:1;stop-color:#badc2f" /><stop
         id="stop186"
         offset="0.518868"
         style="stop-opacity:1;stop-color:#f0d725" /><stop
         id="stop188"
         offset="0.650943"
         style="stop-opacity:1;stop-color:#f27d23" /><stop
         id="stop190"
         offset="0.816038"
         style="stop-opacity:1;stop-color:#ea43a5" /><stop
         id="stop192"
         offset="1"
         style="stop-opacity:1;stop-color:#bf46aa" /></linearGradient><clipPath
       id="clipPath204"
       clipPathUnits="userSpaceOnUse"><path
         id="path202"
         d="m 177.051,891.871 c -9.082,-52.992 32.48,-103.043 32.48,-103.043 0,0 56.258,35.793 65.313,88.774 9.082,52.968 -32.442,102.957 -32.442,102.957 0,0 -56.23,-35.789 -65.351,-88.688" /></clipPath><linearGradient
       id="linearGradient222"
       spreadMethod="pad"
       gradientTransform="matrix(2879.56,-1703.59,-1703.59,-2879.56,-574.197,1358.09)"
       gradientUnits="userSpaceOnUse"
       y2="0"
       x2="1"
       y1="0"
       x1="0"><stop
         id="stop206"
         offset="0"
         style="stop-opacity:1;stop-color:#80ccd7" /><stop
         id="stop208"
         offset="0.141509"
         style="stop-opacity:1;stop-color:#4f9da8" /><stop
         id="stop210"
         offset="0.283019"
         style="stop-opacity:1;stop-color:#70c956" /><stop
         id="stop212"
         offset="0.443396"
         style="stop-opacity:1;stop-color:#badc2f" /><stop
         id="stop214"
         offset="0.518868"
         style="stop-opacity:1;stop-color:#f0d725" /><stop
         id="stop216"
         offset="0.650943"
         style="stop-opacity:1;stop-color:#f27d23" /><stop
         id="stop218"
         offset="0.816038"
         style="stop-opacity:1;stop-color:#ea43a5" /><stop
         id="stop220"
         offset="1"
         style="stop-opacity:1;stop-color:#bf46aa" /></linearGradient><clipPath
       id="clipPath232"
       clipPathUnits="userSpaceOnUse"><path
         id="path230"
         d="m 177.051,891.871 c -9.082,-52.992 32.48,-103.043 32.48,-103.043 0,0 56.258,35.793 65.313,88.774 9.082,52.968 -32.442,102.957 -32.442,102.957 0,0 -56.23,-35.789 -65.351,-88.688" /></clipPath><clipPath
       id="clipPath238"
       clipPathUnits="userSpaceOnUse"><path
         id="path236"
         d="M 182.676,1019.18 347.762,956.262 269.219,750.211 104.141,813.141 Z" /></clipPath><linearGradient
       id="linearGradient256"
       spreadMethod="pad"
       gradientTransform="matrix(2878.99,-1703.26,-1703.26,-2878.99,-574.044,1357.99)"
       gradientUnits="userSpaceOnUse"
       y2="0"
       x2="1"
       y1="0"
       x1="0"><stop
         id="stop240"
         offset="0"
         style="stop-opacity:1;stop-color:#80ccd7" /><stop
         id="stop242"
         offset="0.141509"
         style="stop-opacity:1;stop-color:#4f9da8" /><stop
         id="stop244"
         offset="0.283019"
         style="stop-opacity:1;stop-color:#70c956" /><stop
         id="stop246"
         offset="0.443396"
         style="stop-opacity:1;stop-color:#badc2f" /><stop
         id="stop248"
         offset="0.518868"
         style="stop-opacity:1;stop-color:#f0d725" /><stop
         id="stop250"
         offset="0.650943"
         style="stop-opacity:1;stop-color:#f27d23" /><stop
         id="stop252"
         offset="0.816038"
         style="stop-opacity:1;stop-color:#ea43a5" /><stop
         id="stop254"
         offset="1"
         style="stop-opacity:1;stop-color:#bf46aa" /></linearGradient><clipPath
       id="clipPath266"
       clipPathUnits="userSpaceOnUse"><path
         id="path264"
         d="M 563.672,553.441 C 502.293,515.25 485.684,423.602 485.684,423.602 c 0,0 82.859,-29.731 144.238,8.437 61.328,38.223 77.93,129.883 77.93,129.883 0,0 -30.645,11.008 -68.516,11.008 -24.356,0 -51.641,-4.571 -75.664,-19.489" /></clipPath><linearGradient
       id="linearGradient284"
       spreadMethod="pad"
       gradientTransform="matrix(2879.02,-1703.27,-1703.27,-2879.02,-649.664,1230.17)"
       gradientUnits="userSpaceOnUse"
       y2="0"
       x2="1"
       y1="0"
       x1="0"><stop
         id="stop268"
         offset="0"
         style="stop-opacity:1;stop-color:#80ccd7" /><stop
         id="stop270"
         offset="0.141509"
         style="stop-opacity:1;stop-color:#4f9da8" /><stop
         id="stop272"
         offset="0.283019"
         style="stop-opacity:1;stop-color:#70c956" /><stop
         id="stop274"
         offset="0.443396"
         style="stop-opacity:1;stop-color:#badc2f" /><stop
         id="stop276"
         offset="0.518868"
         style="stop-opacity:1;stop-color:#f0d725" /><stop
         id="stop278"
         offset="0.650943"
         style="stop-opacity:1;stop-color:#f27d23" /><stop
         id="stop280"
         offset="0.816038"
         style="stop-opacity:1;stop-color:#ea43a5" /><stop
         id="stop282"
         offset="1"
         style="stop-opacity:1;stop-color:#bf46aa" /></linearGradient><clipPath
       id="clipPath294"
       clipPathUnits="userSpaceOnUse"><path
         id="path292"
         d="M 563.672,553.441 C 502.293,515.25 485.684,423.602 485.684,423.602 c 0,0 82.859,-29.731 144.238,8.437 61.328,38.223 77.93,129.883 77.93,129.883 0,0 -30.645,11.008 -68.516,11.008 -24.356,0 -51.641,-4.571 -75.664,-19.489" /></clipPath><clipPath
       id="clipPath300"
       clipPathUnits="userSpaceOnUse"><path
         id="path298"
         d="M 513.887,646.891 767.441,550.191 679.656,319.922 426.102,416.59 Z" /></clipPath><linearGradient
       id="linearGradient318"
       spreadMethod="pad"
       gradientTransform="matrix(2878.7,-1703.08,-1703.08,-2878.7,-653.646,1223.15)"
       gradientUnits="userSpaceOnUse"
       y2="0"
       x2="1"
       y1="0"
       x1="0"><stop
         id="stop302"
         offset="0"
         style="stop-opacity:1;stop-color:#80ccd7" /><stop
         id="stop304"
         offset="0.141509"
         style="stop-opacity:1;stop-color:#4f9da8" /><stop
         id="stop306"
         offset="0.283019"
         style="stop-opacity:1;stop-color:#70c956" /><stop
         id="stop308"
         offset="0.443396"
         style="stop-opacity:1;stop-color:#badc2f" /><stop
         id="stop310"
         offset="0.518868"
         style="stop-opacity:1;stop-color:#f0d725" /><stop
         id="stop312"
         offset="0.650943"
         style="stop-opacity:1;stop-color:#f27d23" /><stop
         id="stop314"
         offset="0.816038"
         style="stop-opacity:1;stop-color:#ea43a5" /><stop
         id="stop316"
         offset="1"
         style="stop-opacity:1;stop-color:#bf46aa" /></linearGradient><clipPath
       id="clipPath328"
       clipPathUnits="userSpaceOnUse"><path
         id="path326"
         d="m 688.457,317.941 c 0,0 -8.301,-57.75 20.957,-90.851 29.238,-33.141 84.863,-29.059 84.863,-29.059 0,0 8.243,57.77 -20.957,90.91 -23.457,26.547 -63.906,29.149 -78.984,29.149 -3.731,0 -5.879,-0.149 -5.879,-0.149" /></clipPath><linearGradient
       id="linearGradient346"
       spreadMethod="pad"
       gradientTransform="matrix(2879.22,-1703.39,-1703.39,-2879.22,-715.159,1119.71)"
       gradientUnits="userSpaceOnUse"
       y2="0"
       x2="1"
       y1="0"
       x1="0"><stop
         id="stop330"
         offset="0"
         style="stop-opacity:1;stop-color:#80ccd7" /><stop
         id="stop332"
         offset="0.141509"
         style="stop-opacity:1;stop-color:#4f9da8" /><stop
         id="stop334"
         offset="0.283019"
         style="stop-opacity:1;stop-color:#70c956" /><stop
         id="stop336"
         offset="0.443396"
         style="stop-opacity:1;stop-color:#badc2f" /><stop
         id="stop338"
         offset="0.518868"
         style="stop-opacity:1;stop-color:#f0d725" /><stop
         id="stop340"
         offset="0.650943"
         style="stop-opacity:1;stop-color:#f27d23" /><stop
         id="stop342"
         offset="0.816038"
         style="stop-opacity:1;stop-color:#ea43a5" /><stop
         id="stop344"
         offset="1"
         style="stop-opacity:1;stop-color:#bf46aa" /></linearGradient><clipPath
       id="clipPath356"
       clipPathUnits="userSpaceOnUse"><path
         id="path354"
         d="m 688.457,317.941 c 0,0 -8.301,-57.75 20.957,-90.851 29.238,-33.141 84.863,-29.059 84.863,-29.059 0,0 8.243,57.77 -20.957,90.91 -23.457,26.547 -63.906,29.149 -78.984,29.149 -3.731,0 -5.879,-0.149 -5.879,-0.149" /></clipPath><clipPath
       id="clipPath362"
       clipPathUnits="userSpaceOnUse"><path
         id="path360"
         d="M 695.723,358.828 843.848,302.352 786.992,153.211 638.848,209.691 Z" /></clipPath><linearGradient
       id="linearGradient380"
       spreadMethod="pad"
       gradientTransform="matrix(2878.44,-1702.93,-1702.93,-2878.44,-715.632,1117.99)"
       gradientUnits="userSpaceOnUse"
       y2="0"
       x2="1"
       y1="0"
       x1="0"><stop
         id="stop364"
         offset="0"
         style="stop-opacity:1;stop-color:#80ccd7" /><stop
         id="stop366"
         offset="0.141509"
         style="stop-opacity:1;stop-color:#4f9da8" /><stop
         id="stop368"
         offset="0.283019"
         style="stop-opacity:1;stop-color:#70c956" /><stop
         id="stop370"
         offset="0.443396"
         style="stop-opacity:1;stop-color:#badc2f" /><stop
         id="stop372"
         offset="0.518868"
         style="stop-opacity:1;stop-color:#f0d725" /><stop
         id="stop374"
         offset="0.650943"
         style="stop-opacity:1;stop-color:#f27d23" /><stop
         id="stop376"
         offset="0.816038"
         style="stop-opacity:1;stop-color:#ea43a5" /><stop
         id="stop378"
         offset="1"
         style="stop-opacity:1;stop-color:#bf46aa" /></linearGradient><clipPath
       id="clipPath390"
       clipPathUnits="userSpaceOnUse"><path
         id="path388"
         d="M 133.125,1000.53 C 122.422,893.512 148.34,778.43 190.418,683.922 226.328,603.32 277.109,532.289 346.797,481.102 397.656,443.68 454.188,414.949 512.656,391.621 514.219,314.75 567.43,264.18 622.363,222.43 c 7.473,-5.621 17.567,5.961 10.039,11.691 -50.117,37.949 -99.941,82.738 -104.55,151.629 15.214,-5.789 30.527,-11.391 45.878,-16.57 74.102,-25.078 150.508,-43.782 227.821,-56.711 3.312,-0.559 6.816,2.301 6.515,6 -0.195,2.531 -0.371,5.101 -0.566,7.703 -0.039,0.566 -0.137,1.047 -0.371,1.476 -0.41,1.762 -1.641,3.161 -3.828,3.571 -81.074,13.621 -161.211,33.453 -238.555,60.761 -98.937,34.969 -201.523,82.739 -272.891,163.598 -41.769,47.344 -76.445,106.711 -101.281,171.371 0.071,0.02 0.149,0.071 0.305,0.141 75.449,54.992 133.984,128.871 171.035,216.43 0.254,0.562 0.332,1.109 0.399,1.589 0.675,2.36 0.039,4.789 -2.645,5.86 -2.188,0.902 -4.348,1.832 -6.543,2.73 -2.539,1 -5.996,0.332 -7.266,-2.699 -35.332,-83.379 -90.343,-153.551 -161.757,-206.48 -28.711,81.73 -41.68,170.671 -33.418,253.468 0.273,2.812 -0.918,6.272 -4.063,6.492 -2.375,0.26 -4.719,0.41 -7.09,0.6 -0.195,0 -0.343,0 -0.5,0 -2.605,0 -5.625,-1.49 -5.906,-4.55" /></clipPath><linearGradient
       id="linearGradient408"
       spreadMethod="pad"
       gradientTransform="matrix(2878.97,-1703.24,-1703.24,-2878.97,-635.874,1253.39)"
       gradientUnits="userSpaceOnUse"
       y2="0"
       x2="1"
       y1="0"
       x1="0"><stop
         id="stop392"
         offset="0"
         style="stop-opacity:1;stop-color:#80ccd7" /><stop
         id="stop394"
         offset="0.141509"
         style="stop-opacity:1;stop-color:#4f9da8" /><stop
         id="stop396"
         offset="0.283019"
         style="stop-opacity:1;stop-color:#70c956" /><stop
         id="stop398"
         offset="0.443396"
         style="stop-opacity:1;stop-color:#badc2f" /><stop
         id="stop400"
         offset="0.518868"
         style="stop-opacity:1;stop-color:#f0d725" /><stop
         id="stop402"
         offset="0.650943"
         style="stop-opacity:1;stop-color:#f27d23" /><stop
         id="stop404"
         offset="0.816038"
         style="stop-opacity:1;stop-color:#ea43a5" /><stop
         id="stop406"
         offset="1"
         style="stop-opacity:1;stop-color:#bf46aa" /></linearGradient><clipPath
       id="clipPath418"
       clipPathUnits="userSpaceOnUse"><path
         id="path416"
         d="M 133.125,1000.53 C 122.422,893.512 148.34,778.43 190.418,683.922 226.328,603.32 277.109,532.289 346.797,481.102 397.656,443.68 454.188,414.949 512.656,391.621 514.219,314.75 567.43,264.18 622.363,222.43 c 7.473,-5.621 17.567,5.961 10.039,11.691 -50.117,37.949 -99.941,82.738 -104.55,151.629 15.214,-5.789 30.527,-11.391 45.878,-16.57 74.102,-25.078 150.508,-43.782 227.821,-56.711 3.312,-0.559 6.816,2.301 6.515,6 -0.195,2.531 -0.371,5.101 -0.566,7.703 -0.039,0.566 -0.137,1.047 -0.371,1.476 -0.41,1.762 -1.641,3.161 -3.828,3.571 -81.074,13.621 -161.211,33.453 -238.555,60.761 -98.937,34.969 -201.523,82.739 -272.891,163.598 -41.769,47.344 -76.445,106.711 -101.281,171.371 0.071,0.02 0.149,0.071 0.305,0.141 75.449,54.992 133.984,128.871 171.035,216.43 0.254,0.562 0.332,1.109 0.399,1.589 0.675,2.36 0.039,4.789 -2.645,5.86 -2.188,0.902 -4.348,1.832 -6.543,2.73 -2.539,1 -5.996,0.332 -7.266,-2.699 -35.332,-83.379 -90.343,-153.551 -161.757,-206.48 -28.711,81.73 -41.68,170.671 -33.418,253.468 0.273,2.812 -0.918,6.272 -4.063,6.492 -2.375,0.26 -4.719,0.41 -7.09,0.6 -0.195,0 -0.343,0 -0.5,0 -2.605,0 -5.625,-1.49 -5.906,-4.55" /></clipPath><clipPath
       id="clipPath424"
       clipPathUnits="userSpaceOnUse"><path
         id="path422"
         d="M 209.492,1233.38 1070.78,905.02 721.297,-11.5508 -139.953,316.84 Z" /></clipPath><linearGradient
       id="linearGradient442"
       spreadMethod="pad"
       gradientTransform="matrix(2879.03,-1703.28,-1703.28,-2879.03,-631.944,1260.15)"
       gradientUnits="userSpaceOnUse"
       y2="0"
       x2="1"
       y1="0"
       x1="0"><stop
         id="stop426"
         offset="0"
         style="stop-opacity:1;stop-color:#80ccd7" /><stop
         id="stop428"
         offset="0.141509"
         style="stop-opacity:1;stop-color:#4f9da8" /><stop
         id="stop430"
         offset="0.283019"
         style="stop-opacity:1;stop-color:#70c956" /><stop
         id="stop432"
         offset="0.443396"
         style="stop-opacity:1;stop-color:#badc2f" /><stop
         id="stop434"
         offset="0.518868"
         style="stop-opacity:1;stop-color:#f0d725" /><stop
         id="stop436"
         offset="0.650943"
         style="stop-opacity:1;stop-color:#f27d23" /><stop
         id="stop438"
         offset="0.816038"
         style="stop-opacity:1;stop-color:#ea43a5" /><stop
         id="stop440"
         offset="1"
         style="stop-opacity:1;stop-color:#bf46aa" /></linearGradient></defs><g
     transform="matrix(1.3333333,0,0,-1.3333333,0,307.53333)"
     id="g10"><g
       transform="scale(0.1)"
       id="g12"><path
         id="path14"
         style="fill:#FFFFFF;fill-opacity:1;fill-rule:nonzero;stroke:none"
         d="m 2892.83,1462.28 h 74.4 l -37.2,248.45 z m 176.15,-155.8 h -77.9 l -13.33,89.13 h -94.74 l -13.34,-89.13 h -70.88 l 78.6,491.27 h 112.99 l 78.6,-491.27" /><path
         id="path16"
         style="fill:#FFFFFF;fill-opacity:1;fill-rule:nonzero;stroke:none"
         d="m 3181.97,1727.57 v -150.89 h 30.19 c 14.49,0 25.84,3.73 34.03,11.23 8.19,7.48 12.29,21.05 12.29,40.71 v 48.42 c 0,17.78 -3.17,30.64 -9.48,38.6 -6.32,7.95 -16.27,11.93 -29.83,11.93 z m 84.22,-421.09 c -0.94,3.27 -1.87,6.32 -2.8,9.12 -0.95,2.81 -1.76,6.32 -2.46,10.53 -0.7,4.21 -1.18,9.59 -1.4,16.14 -0.24,6.55 -0.35,14.74 -0.35,24.56 v 77.21 c 0,22.92 -3.98,39.06 -11.93,48.42 -7.96,9.35 -20.83,14.04 -38.61,14.04 h -26.67 v -200.02 h -77.19 v 491.27 h 116.5 c 40.23,0 69.35,-9.37 87.37,-28.07 18.01,-18.72 27.02,-47.02 27.02,-84.92 v -38.6 c 0,-50.53 -16.84,-83.76 -50.52,-99.66 19.64,-7.96 33.09,-20.95 40.35,-38.95 7.24,-18.01 10.88,-39.89 10.88,-65.62 v -75.79 c 0,-12.18 0.46,-22.82 1.4,-31.94 0.93,-9.13 3.26,-18.36 7.01,-27.72 h -78.6" /><path
         id="path18"
         style="fill:#FFFFFF;fill-opacity:1;fill-rule:nonzero;stroke:none"
         d="m 3364.44,1797.75 h 238.62 v -70.18 h -80.71 v -421.09 h -77.19 v 421.09 h -80.72 v 70.18" /><path
         id="path20"
         style="fill:#FFFFFF;fill-opacity:1;fill-rule:nonzero;stroke:none"
         d="M 2879.5,1141.13 V 790.219 h 43.52 c 12.15,0 21.76,3.511 28.77,10.531 7.02,7.012 10.52,19.398 10.52,37.191 V 1093.4 c 0,17.78 -3.5,30.18 -10.52,37.2 -7.01,7.01 -16.62,10.53 -28.77,10.53 z m -77.2,70.17 h 122.12 c 38.83,0 67.73,-10.29 86.67,-30.88 18.95,-20.59 28.43,-50.77 28.43,-90.52 V 841.449 c 0,-39.777 -9.48,-69.949 -28.43,-90.539 -18.94,-20.59 -47.84,-30.879 -86.67,-30.879 H 2802.3 V 1211.3" /><path
         id="path22"
         style="fill:#FFFFFF;fill-opacity:1;fill-rule:nonzero;stroke:none"
         d="m 3165.84,1004.27 h 105.97 V 934.09 H 3165.84 V 790.219 h 133.34 V 720.031 H 3088.63 V 1211.3 h 210.55 v -70.17 h -133.34 v -136.86" /><path
         id="path24"
         style="fill:#FFFFFF;fill-opacity:1;fill-rule:nonzero;stroke:none"
         d="m 3570.78,903.211 v -65.27 c 0,-39.769 -9.72,-70.3 -29.12,-91.589 -19.42,-21.301 -48.08,-31.93 -85.98,-31.93 -37.9,0 -66.56,10.629 -85.97,31.93 -19.42,21.289 -29.12,51.82 -29.12,91.589 V 1093.4 c 0,39.77 9.7,70.3 29.12,91.59 19.41,21.28 48.07,31.93 85.97,31.93 37.9,0 66.56,-10.65 85.98,-31.93 19.4,-21.29 29.12,-51.82 29.12,-91.59 v -47.72 h -72.99 v 52.64 c 0,17.77 -3.63,30.28 -10.88,37.54 -7.25,7.25 -16.96,10.88 -29.12,10.88 -12.18,0 -21.88,-3.63 -29.13,-10.88 -7.25,-7.26 -10.88,-19.77 -10.88,-37.54 v -265.3 c 0,-17.782 3.63,-30.168 10.88,-37.188 7.25,-7.023 16.95,-10.523 29.13,-10.523 12.16,0 21.87,3.5 29.12,10.523 7.25,7.02 10.88,19.406 10.88,37.188 v 70.191 h 72.99" /><path
         id="path26"
         style="fill:#FFFFFF;fill-opacity:1;fill-rule:nonzero;stroke:none"
         d="m 3688.68,833.02 c 0,-17.782 3.62,-30.29 10.88,-37.54 7.25,-7.261 16.95,-10.878 29.13,-10.878 12.16,0 21.87,3.617 29.12,10.878 7.25,7.25 10.88,19.758 10.88,37.54 v 265.3 c 0,17.77 -3.63,30.28 -10.88,37.54 -7.25,7.25 -16.96,10.88 -29.12,10.88 -12.18,0 -21.88,-3.63 -29.13,-10.88 -7.26,-7.26 -10.88,-19.77 -10.88,-37.54 z m -77.2,260.38 c 0,39.77 10.06,70.3 30.18,91.59 20.12,21.28 49.13,31.93 87.03,31.93 37.89,0 66.9,-10.65 87.02,-31.93 20.11,-21.29 30.18,-51.82 30.18,-91.59 V 837.941 c 0,-39.769 -10.07,-70.3 -30.18,-91.589 -20.12,-21.301 -49.13,-31.93 -87.02,-31.93 -37.9,0 -66.91,10.629 -87.03,31.93 -20.12,21.289 -30.18,51.82 -30.18,91.589 V 1093.4" /><path
         id="path28"
         style="fill:#FFFFFF;fill-opacity:1;fill-rule:nonzero;stroke:none"
         d="M 3972.91,1141.13 V 990.238 h 30.18 c 14.5,0 25.84,3.731 34.04,11.222 8.17,7.48 12.27,21.05 12.27,40.71 v 48.42 c 0,17.78 -3.15,30.65 -9.47,38.6 -6.32,7.95 -16.26,11.94 -29.82,11.94 z m 84.22,-421.099 c -0.95,3.278 -1.88,6.321 -2.81,9.129 -0.94,2.809 -1.75,6.309 -2.46,10.52 -0.7,4.211 -1.17,9.59 -1.4,16.152 -0.25,6.547 -0.35,14.727 -0.35,24.559 v 77.199 c 0,22.922 -3.98,39.07 -11.94,48.43 -7.96,9.351 -20.82,14.031 -38.59,14.031 h -26.67 v -200.02 h -77.2 V 1211.3 h 116.5 c 40.23,0 69.36,-9.36 87.38,-28.06 18.01,-18.72 27.02,-47.02 27.02,-84.92 v -38.61 c 0,-50.53 -16.84,-83.761 -50.54,-99.659 19.66,-7.961 33.1,-20.942 40.36,-38.942 7.25,-18.019 10.88,-39.89 10.88,-65.629 v -75.789 c 0,-12.179 0.46,-22.812 1.4,-31.929 0.94,-9.133 3.27,-18.371 7.02,-27.731 h -78.6" /><g
         id="g30"><g
           clip-path="url(#clipPath36)"
           id="g32"><path
             id="path56"
             style="fill:url(#linearGradient54);fill-opacity:1;fill-rule:nonzero;stroke:none"
             d="m 250.137,2067.13 c -5.403,-24.85 -12.121,-55.57 -20.215,-92.22 -8.086,-36.68 -16.731,-77.89 -25.891,-123.7 -9.148,-45.84 -19.14,-95.69 -29.89,-149.62 -10.813,-53.92 -21.055,-109.96 -30.743,-168.21 17.247,56.08 37.715,117.01 61.454,182.77 23.711,65.76 50.949,129.4 81.671,190.84 30.743,61.45 64.141,116.97 100.282,166.58 36.105,49.59 74.64,86.24 115.617,109.99 43.125,24.78 89.492,35.3 139.101,31.5 49.579,-3.75 92.715,-18.04 129.375,-42.83 35.586,-23.75 61.719,-55.27 78.446,-94.62 16.711,-39.34 25.597,-82.78 26.679,-130.17 1.067,-47.49 -4.843,-97.61 -17.781,-150.41 -12.929,-52.83 -31.289,-104.34 -55,-154.48 -23.711,-50.1 -51.504,-97.29 -83.281,-141.49 -31.828,-44.25 -66.066,-81.45 -102.707,-111.61 -19.402,-16.15 -40.43,-31.01 -63.074,-44.47 -22.637,-13.51 -45.832,-24.53 -69.532,-33.17 -42.07,-14.01 -77.91,-16.99 -107.55,-8.87 -29.676,8.08 -53.934,23.17 -72.782,45.29 -18.878,22.08 -32.617,49.05 -41.242,80.85 -8.64,31.8 -12.937,63.9 -12.937,96.21 l 11.316,1.66 c -1.082,-38.84 3.762,-73.89 14.563,-105.13 10.761,-31.3 26.132,-56.6 46.093,-76.02 19.934,-19.43 43.907,-31.83 71.973,-37.18 28.027,-5.46 58.223,-1.14 90.566,12.9 36.641,16.18 69.532,43.12 98.645,80.91 29.117,37.7 53.895,81.36 74.402,130.95 20.469,49.59 36.387,102.97 47.703,160.13 11.321,57.13 17.532,112.94 18.594,167.37 1.067,54.45 -2.969,105.14 -12.117,152.05 -9.18,46.89 -24.023,85.45 -44.484,115.63 -15.098,20.49 -31.27,35.31 -48.516,44.47 -17.254,9.16 -35.047,13.48 -53.367,12.95 -18.34,-0.55 -36.66,-5.43 -54.981,-14.57 -18.359,-9.18 -35.586,-21.29 -51.757,-36.36 -34.532,-31.32 -66.868,-71.48 -97.043,-120.5 -30.184,-49.09 -58.516,-101.89 -84.903,-158.49 -26.426,-56.6 -50.125,-113.76 -71.16,-171.45 -21.027,-57.68 -38.574,-110.8 -52.578,-159.32 -10.773,-35.55 -21.582,-79.8 -32.336,-132.6 C 109.98,1339.86 101.074,1283.5 94.082,1223.7 87.0508,1163.85 82.7539,1102.63 81.1328,1040.12 79.5117,977.578 82.7539,918.531 90.832,863.051 98.9063,807.512 112.383,757.66 131.27,713.41 150.117,669.211 176.797,635.809 211.316,613.141 161.711,645.488 122.09,692.172 92.4492,753.051 62.793,813.98 40.6914,883 26.1406,960.059 11.582,1037.14 3.24219,1119.9 1.07422,1208.32 -1.07422,1296.71 0,1385.14 4.30469,1473.57 c 4.32812,88.37 11.08591,174.1 20.22661,257.15 9.1289,82.99 17.5,157.66 25.0585,223.97 7.5391,66.32 13.4766,121.86 17.793,166.56 4.2969,44.79 4.2969,72.52 0,83.3 4.2969,14.03 18.3281,22.91 42.0512,26.72 23.691,3.77 47.441,0.78 71.152,-8.9 23.711,-9.73 43.672,-26.96 59.844,-51.77 16.172,-24.8 19.406,-59.31 9.707,-103.47" /></g></g><g
         id="g58"><g
           clip-path="url(#clipPath64)"
           id="g60"><path
             id="path84"
             style="fill:url(#linearGradient82);fill-opacity:1;fill-rule:nonzero;stroke:none"
             d="m 733.699,1070.83 c 8.625,6.5 21.563,16.21 38.821,29.14 17.226,12.95 35.585,28.02 54.98,45.28 19.414,17.24 38.828,35.81 58.223,55.78 19.414,19.95 35.586,39.88 48.523,59.82 12.942,19.98 21.027,38.56 24.27,55.85 3.222,17.22 -1.114,32.32 -12.95,45.27 -12.941,12.94 -26.699,16.15 -41.242,9.69 -14.558,-6.44 -29.394,-19.16 -44.48,-38 -15.117,-18.87 -29.668,-41.51 -43.672,-67.92 -14.004,-26.44 -26.953,-52.57 -38.809,-78.45 -11.886,-25.89 -21.582,-49.61 -29.101,-71.17 -7.559,-21.56 -12.422,-36.65 -14.563,-45.29 z m 87.317,321.86 c 4.304,2.16 10.781,4.28 19.422,6.49 32.335,6.44 61.445,3.25 87.335,-9.73 8.614,-4.31 17.227,-10.8 25.879,-19.41 13.993,-15.11 19.649,-32.08 16.973,-50.92 -2.695,-18.89 -10.781,-38.82 -24.258,-59.85 -13.496,-21.05 -30.48,-42.35 -50.949,-63.9 -20.488,-21.57 -41.23,-41.49 -62.254,-59.81 -21.027,-18.36 -40.996,-34.51 -59.844,-48.52 -18.879,-14.04 -33.164,-24.28 -42.859,-30.77 -21.586,-77.598 -21.828,-128.84 -0.793,-153.61 21.016,-24.789 60.633,-26.43 118.867,-4.871 17.227,6.481 36.094,15.383 56.602,26.699 20.468,11.321 41.23,26.66 62.254,46.102 21.027,19.398 42.309,43.1 63.889,71.16 21.55,28.01 42.06,61.44 61.45,100.26 l 9.7,-4.86 c -21.57,-43.12 -45.55,-81.14 -71.96,-114.02 -26.44,-32.88 -53.919,-60.4 -82.482,-82.489 -28.574,-22.11 -57.422,-39.051 -86.523,-50.93 -29.121,-11.84 -57.16,-18.852 -84.102,-21 -31.289,2.148 -57.402,15.078 -78.437,38.809 -21.035,23.679 -36.133,53.089 -45.293,88.14 -9.141,34.99 -12.383,73.02 -9.707,114.02 2.715,40.95 10.781,80.59 24.265,118.87 13.469,38.24 32.883,72.21 58.235,101.88 25.312,29.64 56.855,50.39 94.59,62.26" /></g></g><g
         id="g86"><g
           clip-path="url(#clipPath92)"
           id="g88"><path
             id="path112"
             style="fill:url(#linearGradient110);fill-opacity:1;fill-rule:nonzero;stroke:none"
             d="m 1271.45,2084.89 c 16.69,5.39 33.14,4.57 49.31,-2.43 16.18,-7.03 29.65,-18.89 40.43,-35.57 10.78,-16.75 12.95,-36.41 6.49,-59.05 -10.81,-34.52 -23.75,-76 -38.83,-124.52 -15.1,-48.53 -31.29,-101.89 -48.52,-160.1 58.22,-3.24 117.27,-3.24 177.09,0 59.86,3.24 115.65,12.93 167.4,29.08 51.74,16.2 97.03,40.18 135.84,71.98 38.83,31.8 66.31,74.68 82.48,128.6 2.15,4.27 4.32,5.35 6.48,3.24 4.29,0 5.4,-2.19 3.23,-6.49 -16.17,-56.08 -44.23,-100.54 -84.1,-133.42 -39.9,-32.92 -86.52,-57.42 -139.89,-73.6 -53.36,-16.15 -110.52,-25.86 -171.44,-29.1 -60.94,-3.24 -121.03,-3.24 -180.31,0 -6.48,-20.48 -12.71,-41.53 -18.6,-63.1 -5.94,-21.55 -12.14,-43.11 -18.61,-64.67 -14.01,-51.77 -28.06,-109.7 -42.06,-173.87 -14.01,-64.17 -26.68,-129.36 -38,-195.69 -11.32,-66.29 -19.68,-130.17 -25.07,-191.63 -5.4,-61.48 -6.72,-114.55 -4.04,-159.3 2.69,-44.73 11.05,-78.691 25.07,-101.891 14,-23.187 35.02,-29.39 63.09,-18.629 13.99,7.579 30.71,20.532 50.11,38.852 19.43,18.34 42.31,44.457 68.75,78.418 26.4,33.961 56.61,76.84 90.56,128.59 33.96,51.72 72.5,114.82 115.65,189.2 0,4.31 2.13,5.41 6.46,3.24 2.16,-3.24 2.69,-5.38 1.62,-6.46 -56.08,-98.14 -104.86,-177.09 -146.38,-236.91 -41.51,-59.851 -77.37,-105.68 -107.53,-137.512 -30.2,-31.789 -55.28,-52.796 -75.21,-63.058 -19.96,-10.238 -35.34,-15.36 -46.1,-15.36 -4.32,0 -9.69,1.079 -16.16,3.219 -31.29,8.68 -55.01,27.762 -71.17,57.422 -16.17,29.68 -28.01,62.027 -35.56,97.027 -7.56,35.043 -11.88,69.274 -12.95,102.731 -1.08,33.371 -1.08,58.181 0,74.381 3.23,51.72 8.35,106.16 15.35,163.34 7.03,57.16 15.62,114.53 25.9,172.26 10.23,57.63 21.27,114.55 33.14,170.6 11.84,56.08 23.7,108.9 35.57,158.51 -18.34,2.14 -35.84,4.28 -52.54,6.44 -16.74,2.16 -32.64,4.33 -47.73,6.49 l -24.26,1.64 c -56.039,6.43 -99.711,6.43 -131,0 -31.25,-6.5 -54.98,-15.68 -71.144,-27.52 -19.422,-12.94 -31.805,-28.56 -37.207,-46.89 -2.157,-3.23 -4.305,-4.89 -6.473,-4.89 -3.223,0 -4.844,2.17 -4.844,6.49 9.696,22.64 22.91,40.14 39.617,52.59 16.731,12.36 41.809,22.33 75.207,29.89 33.418,7.54 79.239,8.08 137.464,1.65 l 24.26,-3.25 c 15.09,-2.18 31.26,-4.06 48.52,-5.65 17.24,-1.63 35.03,-3.53 53.37,-5.67 10.76,44.19 21.02,85.94 30.74,125.34 9.7,39.34 18.32,74.13 25.86,104.32 7.54,30.16 16.17,63.08 25.89,98.63 6.47,22.64 18.04,36.66 34.78,42.06" /></g></g><g
         id="g114"><g
           clip-path="url(#clipPath120)"
           id="g116"><path
             id="path140"
             style="fill:url(#linearGradient138);fill-opacity:1;fill-rule:nonzero;stroke:none"
             d="m 1704.06,1315.05 c 11.86,-5.41 22.64,-17.25 32.35,-35.56 9.7,-18.37 17.22,-45.29 22.63,-80.88 l -11.33,-1.61 c -1.09,9.68 -3.49,21.56 -7.26,35.56 -3.79,14 -8.91,27.22 -15.37,39.62 -6.48,12.4 -14.55,21.87 -24.25,28.31 -9.72,6.47 -21.58,7.55 -35.59,3.25 -22.63,-7.57 -42.32,-25.34 -59.03,-53.38 -16.74,-28.03 -30.19,-60.09 -40.43,-96.21 -10.27,-36.13 -16.98,-72.79 -20.23,-109.97 -3.23,-37.2 -2.42,-68.739 2.43,-94.621 4.85,-25.879 14,-43.118 27.49,-51.77 13.47,-8.609 32.07,-1.59 55.82,21.051 17.22,17.242 34.2,40.648 50.94,70.32 16.69,29.66 31.78,61.46 45.28,95.42 13.46,33.99 25.05,67.4 34.78,100.28 9.69,32.88 17.22,60.66 22.63,83.31 2.15,12.93 4.28,25.57 6.47,37.97 2.15,12.4 4.86,24.54 8.08,36.43 3.24,16.16 12.38,26.11 27.5,29.91 15.08,3.75 30.99,2.43 47.7,-4.05 16.71,-6.46 30.74,-17.25 42.07,-32.34 11.32,-15.12 14.8,-33.44 10.5,-54.99 -3.22,-15.12 -10.5,-37.77 -21.83,-67.93 -11.32,-30.21 -22.91,-63.09 -34.78,-98.66 -11.88,-35.6 -23.2,-71.41 -33.95,-107.53 -10.78,-36.171 -17.79,-68.48 -21.04,-97.05 -3.23,-28.559 -1.07,-51.2 6.47,-67.93 7.55,-16.699 23.18,-22.379 46.9,-16.969 5.38,2.16 10.25,4.02 14.56,5.649 4.3,1.609 9.14,4.039 14.56,7.261 19.41,14.039 37.73,34.539 54.98,61.481 17.24,26.918 32.89,56.047 46.91,87.34 13.99,31.218 26.4,62.518 37.21,93.788 10.75,31.24 18.83,58.21 24.25,80.85 l 11.32,-3.19 c -6.49,-22.65 -15.12,-49.9 -25.89,-81.7 -10.78,-31.82 -23.43,-63.62 -37.98,-95.42 -14.57,-31.801 -30.75,-61.43 -48.54,-88.961 -17.77,-27.488 -36.93,-48.231 -57.42,-62.258 -11.86,-8.609 -25.33,-14.262 -40.42,-16.973 -15.12,-2.699 -29.12,-0.269 -42.04,7.282 -20.5,10.761 -34.78,32.32 -42.86,64.679 -8.1,32.321 -12.69,67.942 -13.76,106.743 -1.09,38.828 -0.28,76.548 2.44,113.198 2.67,36.65 5.1,64.17 7.28,82.49 -6.48,-20.48 -14.04,-43.44 -22.64,-68.72 -8.66,-25.35 -18.61,-50.98 -29.93,-76.82 -11.31,-25.88 -24.02,-50.422 -38.02,-73.609 -14.02,-23.172 -28.58,-41.801 -43.66,-55.789 -23.72,-22.641 -46.9,-30.161 -69.55,-22.641 -24.81,8.621 -46.64,31.269 -65.49,67.918 -18.88,36.652 -31.55,77.351 -38.01,122.101 -6.46,44.73 -5.1,88.4 4.05,131.02 9.13,42.58 29.91,74.65 62.26,96.21 10.76,7.52 24.26,13.19 40.45,16.99 16.15,3.75 32.33,5.68 48.5,5.68 16.16,0 31.79,-1.35 46.91,-4.05 15.07,-2.71 26.93,-6.22 35.58,-10.53" /></g></g><g
         id="g142"><g
           clip-path="url(#clipPath148)"
           id="g144"><path
             id="path168"
             style="fill:url(#linearGradient166);fill-opacity:1;fill-rule:nonzero;stroke:none"
             d="m 2163.37,1423.4 c 77.62,80.9 143.12,156.35 196.48,226.41 53.38,70.09 96.77,134.26 130.21,192.5 33.4,58.21 57.65,110.77 72.78,157.67 15.08,46.91 23.7,88.13 25.86,123.75 2.16,28 0.26,52.54 -5.65,73.58 -5.94,20.99 -14.83,39.05 -26.68,54.17 -21.58,25.86 -43.15,34.75 -64.69,26.68 -21.58,-8.08 -43.43,-27.78 -65.51,-59.03 -22.12,-31.27 -43.65,-71.72 -64.7,-121.28 -21.01,-49.61 -40.97,-102.44 -59.84,-158.49 -18.86,-56.09 -36.38,-112.99 -52.55,-170.63 -16.17,-57.72 -30.47,-110.8 -42.86,-159.32 -12.41,-48.5 -22.39,-89.5 -29.91,-122.91 -7.56,-33.44 -11.89,-54.45 -12.94,-63.1 z m 90.56,742.37 c 23.71,38.78 53.63,72.2 89.76,100.25 36.11,28.03 76.83,41.5 122.11,40.43 39.88,-2.17 72.77,-18.32 98.63,-48.54 11.88,-15.05 21.29,-33.69 28.32,-55.76 7,-22.13 9.44,-48.26 7.27,-78.42 -2.15,-36.69 -11.32,-79.29 -27.48,-127.77 -16.17,-48.52 -41.52,-102.69 -76.03,-162.55 -34.51,-59.84 -79.24,-125.65 -134.22,-197.32 -55,-71.72 -122.39,-149.06 -202.17,-232.08 -3.23,-17.24 -8.64,-44.76 -16.16,-82.49 -7.55,-37.76 -14.84,-80.06 -21.83,-126.93 -7.02,-46.94 -12.15,-95.2 -15.36,-144.76 -3.25,-49.61 -2.73,-95.182 1.61,-136.658 4.29,-41.492 13.75,-75.731 28.31,-102.711 14.54,-26.91 36.92,-40.449 67.1,-40.449 20.49,0 41.23,10.82 62.28,32.379 21.02,21.558 41.22,49.289 60.64,83.308 19.4,33.961 37.45,70.321 54.19,109.141 16.7,38.79 30.98,75.2 42.83,109.17 11.88,33.98 24.81,73.59 38.83,118.88 l 9.71,-1.64 c -14.03,-46.36 -27.25,-86.81 -39.63,-121.28 -12.41,-34.54 -27.24,-71.72 -44.46,-111.618 -17.27,-39.883 -35.86,-76.813 -55.82,-110.782 -19.96,-33.961 -40.7,-62.269 -62.25,-84.91 -21.57,-22.648 -43.68,-33.961 -66.32,-33.961 -28.05,1.082 -52.31,14.571 -72.77,40.449 -20.49,25.883 -37.19,56.602 -50.14,92.192 -12.94,35.582 -23.2,71.39 -30.71,107.558 -7.55,36.082 -12.4,64.372 -14.56,84.892 -6.49,59.3 -8.91,122.12 -7.29,188.39 1.62,66.33 6.47,133.44 14.56,201.39 8.08,67.92 19.4,135.29 33.96,202.13 14.57,66.84 30.98,130.46 49.32,190.86 18.33,60.35 38.26,116.18 59.86,167.38 21.55,51.19 44.19,95.16 67.91,131.83" /></g></g><g
         id="g170"><g
           clip-path="url(#clipPath176)"
           id="g172"><path
             id="path196"
             style="fill:url(#linearGradient194);fill-opacity:1;fill-rule:nonzero;stroke:none"
             d="m 2537.89,713.32 c -12.95,-31.238 -36.23,-57.199 -69.39,-77.75 -8.79,-3.082 -17.55,-5.75 -25.94,-8.058 -8.77,-2.282 -17.93,-3.024 -27.46,-3.024 -25.92,-1.156 -44.22,9.922 -55.29,33.934 -10.68,25.547 -11.82,57.949 -3.81,96.867 8,38.859 20.59,78.512 37.74,118.961 17.56,40.41 36.63,78.551 57.59,114.77 20.97,36.25 39.66,65.57 55.68,88.06 12.95,-46.12 24.78,-91.471 35.08,-134.978 9.92,-43.832 15.24,-85.012 15.24,-123.922 0,-38.5 -6.47,-73.598 -19.44,-104.86 z m 197.15,592.58 c -49.57,-28.6 -95.7,-64.8 -138.81,-109.05 -16.39,50.71 -32.4,98.76 -48.05,144.91 -15.64,45.76 -26.3,87.32 -32.02,124.28 -6.1,37.4 -3.82,69.41 7.25,96.12 10.67,27.08 35.09,46.51 72.82,58.33 18.3,5.37 35.47,3.82 51.48,-4.98 16.4,-8.36 27.46,-22.11 33.95,-40.4 7.6,-20.21 8.37,-46.91 2.66,-78.92 -6.09,-32.4 -21.74,-69.81 -47.67,-111.72 l 9.53,-4.95 c 27.08,44.23 43.48,83.11 49.2,116.67 6.1,33.16 4.58,61.4 -3.82,83.9 -7.61,19.42 -17.91,33.17 -30.89,41.18 -12.96,7.99 -27.08,12.2 -42.7,12.2 -15.63,0 -31.64,-3.47 -47.66,-10.67 -16.4,-6.85 -30.9,-16.39 -43.86,-28.25 -33.17,-27.8 -56.05,-60.61 -67.88,-98.36 -11.81,-37.77 -16.4,-78.91 -13.72,-123.16 2.67,-44.24 9.9,-90.37 21.73,-138.03 11.82,-48.05 24.41,-96.51 37.37,-144.91 -17.14,-23.65 -36.98,-54.56 -59.1,-92.27 -22.12,-37.761 -41.95,-77.41 -59.88,-118.621 -17.9,-41.551 -30.87,-82.359 -39.66,-122.398 -8.38,-39.66 -6.85,-73.571 4.98,-101.813 11.82,-27.859 33.55,-41.968 64.81,-41.968 26.7,0 51.11,6.902 72.46,21.011 21.73,14.078 40.41,29.34 56.05,46.141 15.64,16.758 32.03,38.867 49.18,67.109 20.61,33.551 34.71,68.258 41.96,105.219 7.62,36.609 10.68,73.219 9.15,110.609 -1.91,37.351 -6.85,74.731 -15.62,112.461 -8.41,37.76 -18.31,74.78 -29,111.74 43.09,43.1 89.22,78.94 138.42,108.3 5.73,3.42 11.44,6.49 17.16,9.54 v 11.42 c -6.47,-3.41 -13.35,-6.85 -19.82,-10.67" /></g></g><g
         id="g198"><g
           clip-path="url(#clipPath204)"
           id="g200"><path
             id="path224"
             style="fill:url(#linearGradient222);fill-opacity:1;fill-rule:nonzero;stroke:none"
             d="m 177.051,891.871 c -9.082,-52.992 32.48,-103.043 32.48,-103.043 0,0 56.258,35.793 65.313,88.774 9.082,52.968 -32.442,102.957 -32.442,102.957 0,0 -56.23,-35.789 -65.351,-88.688" /></g></g><g
         id="g226"><g
           clip-path="url(#clipPath232)"
           id="g228"><g
             clip-path="url(#clipPath238)"
             id="g234"><path
               id="path258"
               style="fill:url(#linearGradient256);fill-opacity:1;fill-rule:nonzero;stroke:none"
               d="m 209,788 v 1 h -1 v 1 h -1 v 2 h -1 v 1 h -1 v 1 h -1 v 2 h -1 v 1 h -1 v 2 h -1 v 1 h -1 v 2 h -1 v 1 h -1 v 2 h -1 v 2 h -1 v 1 h -1 v 2 h -1 v 2 h -1 v 2 h -1 v 2 h -1 v 2 h -1 v 2 h -1 v 2 h -1 v 2 h -1 v 2 h -1 v 3 h -1 v 2 h -1 v 3 h -1 v 3 h -1 v 3 h -1 v 3 h -1 v 3 h -1 v 4 h -1 v 5 h -1 v 5 h -1 v 10 h -1 v 13 h 1 v 9 h 1 v 5 h 1 v 4 h 1 v 3 h 1 v 3 h 1 v 3 h 1 v 3 h 1 v 2 h 1 v 2 h 1 v 2 h 1 v 2 h 1 v 2 h 1 v 2 h 1 v 2 h 1 v 1 h 1 v 2 h 1 v 1 h 1 v 2 h 1 v 1 h 1 v 2 h 1 v 1 h 1 v 2 h 1 v 1 h 1 v 1 h 1 v 2 h 1 v 1 h 1 v 1 h 1 v 1 h 1 v 2 h 1 v 1 h 1 v 1 h 1 v 1 h 1 v 1 h 1 v 1 h 1 v 1 h 1 v 1 h 1 v 1 h 1 v 1 h 1 v 1 h 1 v 1 h 1 v 1 h 1 v 1 h 1 v 1 h 1 v 1 h 1 v 1 h 1 v 1 h 1 v 1 h 1 v 1 h 1 v 1 h 1 v 1 h 2 v 1 h 1 v 1 h 1 v 1 h 1 v 1 h 2 v 1 h 1 v 1 h 1 v 1 h 1 v 1 h 2 v 1 h 1 v 1 h 2 v 1 h 1 v 1 h 2 v -1 h 1 v -1 h 1 v -1 h 1 v -2 h 1 v -1 h 1 v -2 h 1 v -1 h 1 v -1 h 1 v -2 h 1 v -2 h 1 v -1 h 1 v -2 h 1 v -1 h 1 v -2 h 1 v -2 h 1 v -2 h 1 v -2 h 1 v -2 h 1 v -2 h 1 v -2 h 1 v -2 h 1 v -2 h 1 v -2 h 1 v -3 h 1 v -2 h 1 v -3 h 1 v -2 h 1 v -3 h 1 v -4 h 1 v -3 h 1 v -4 h 1 v -5 h 1 v -5 h 1 v -11 h 1 v -8 h -1 v -12 h -1 v -5 h -1 v -4 h -1 v -3 h -1 v -3 h -1 v -3 h -1 v -3 h -1 v -2 h -1 v -2 h -1 v -3 h -1 v -2 h -1 v -1 h -1 v -2 h -1 v -2 h -1 v -2 h -1 v -1 h -1 v -2 h -1 v -1 h -1 v -2 h -1 v -1 h -1 v -2 h -1 v -1 h -1 v -2 h -1 v -1 h -1 v -1 h -1 v -2 h -1 v -1 h -1 v -1 h -1 v -1 h -1 v -1 h -1 v -1 h -1 v -2 h -1 v -1 h -1 v -1 h -1 v -1 h -1 v -1 h -1 v -1 h -1 v -1 h -1 v -1 h -1 v -1 h -1 v -1 h -1 v -1 h -1 v -1 h -1 v -1 h -1 v -1 h -1 v -1 h -2 v -1 h -1 v -1 h -1 v -1 h -1 v -1 h -1 v -1 h -1 v -1 h -2 v -1 h -1 v -1 h -1 v -1 h -1 v -1 h -2 v -1 h -1 v -1 h -1 v -1 h -2 v -1 h -1 v -1 h -2 v -1" /></g></g></g><g
         id="g260"><g
           clip-path="url(#clipPath266)"
           id="g262"><path
             id="path286"
             style="fill:url(#linearGradient284);fill-opacity:1;fill-rule:nonzero;stroke:none"
             d="M 563.672,553.441 C 502.293,515.25 485.684,423.602 485.684,423.602 c 0,0 82.859,-29.731 144.238,8.437 61.328,38.223 77.93,129.883 77.93,129.883 0,0 -30.645,11.008 -68.516,11.008 -24.356,0 -51.641,-4.571 -75.664,-19.489" /></g></g><g
         id="g288"><g
           clip-path="url(#clipPath294)"
           id="g290"><g
             clip-path="url(#clipPath300)"
             id="g296"><path
               id="path320"
               style="fill:url(#linearGradient318);fill-opacity:1;fill-rule:nonzero;stroke:none"
               d="m 542,412 v 1 h -12 v 1 h -8 v 1 h -6 v 1 h -5 v 1 h -5 v 1 h -5 v 1 h -4 v 1 h -3 v 1 h -4 v 1 h -3 v 1 h -2 v 3 h 1 v 4 h 1 v 4 h 1 v 4 h 1 v 4 h 1 v 3 h 1 v 3 h 1 v 3 h 1 v 4 h 1 v 2 h 1 v 3 h 1 v 3 h 1 v 3 h 1 v 2 h 1 v 3 h 1 v 2 h 1 v 2 h 1 v 3 h 1 v 2 h 1 v 2 h 1 v 2 h 1 v 2 h 1 v 2 h 1 v 2 h 1 v 2 h 1 v 2 h 1 v 2 h 1 v 2 h 1 v 1 h 1 v 2 h 1 v 2 h 1 v 2 h 1 v 1 h 1 v 2 h 1 v 1 h 1 v 2 h 1 v 1 h 1 v 2 h 1 v 1 h 1 v 2 h 1 v 1 h 1 v 1 h 1 v 2 h 1 v 1 h 1 v 1 h 1 v 1 h 1 v 2 h 1 v 1 h 1 v 1 h 1 v 1 h 1 v 1 h 1 v 1 h 1 v 1 h 1 v 1 h 1 v 2 h 1 v 1 h 1 v 1 h 1 v 1 h 1 v 1 h 2 v 1 h 1 v 1 h 1 v 1 h 1 v 1 h 1 v 1 h 1 v 1 h 1 v 1 h 2 v 1 h 1 v 1 h 1 v 1 h 2 v 1 h 1 v 1 h 1 v 1 h 2 v 1 h 1 v 1 h 2 v 1 h 2 v 1 h 1 v 1 h 2 v 1 h 2 v 1 h 3 v 1 h 2 v 1 h 2 v 1 h 2 v 1 h 2 v 1 h 4 v 1 h 3 v 1 h 3 v 1 h 3 v 1 h 3 v 1 h 4 v 1 h 6 v 1 h 6 v 1 h 6 v 1 h 38 v -1 h 10 v -1 h 6 v -1 h 6 v -1 h 5 v -1 h 5 v -1 h 4 v -1 h 4 v -1 h 4 v -1 h 3 v -1 h 3 v -6 h -1 v -4 h -1 v -4 h -1 v -4 h -1 v -3 h -1 v -3 h -1 v -4 h -1 v -3 h -1 v -3 h -1 v -2 h -1 v -3 h -1 v -3 h -1 v -2 h -1 v -3 h -1 v -2 h -1 v -3 h -1 v -2 h -1 v -2 h -1 v -3 h -1 v -2 h -1 v -2 h -1 v -2 h -1 v -2 h -1 v -2 h -1 v -2 h -1 v -2 h -1 v -1 h -1 v -2 h -1 v -2 h -1 v -2 h -1 v -1 h -1 v -2 h -1 v -2 h -1 v -1 h -1 v -2 h -1 v -1 h -1 v -2 h -1 v -1 h -1 v -2 h -1 v -1 h -1 v -1 h -1 v -2 h -1 v -1 h -1 v -1 h -1 v -1 h -1 v -2 h -1 v -1 h -1 v -1 h -1 v -1 h -1 v -1 h -1 v -1 h -1 v -1 h -1 v -1 h -1 v -2 h -1 v -1 h -1 v -1 h -1 v -1 h -1 v -1 h -1 v -1 h -2 v -1 h -1 v -1 h -1 v -1 h -1 v -1 h -1 v -1 h -1 v -1 h -1 v -1 h -2 v -1 h -1 v -1 h -1 v -1 h -2 v -1 h -1 v -1 h -1 v -1 h -2 v -1 h -2 v -1 h -1 v -1 h -2 v -1 h -2 v -1 h -2 v -1 h -2 v -1 h -2 v -1 h -2 v -1 h -2 v -1 h -3 v -1 h -2 v -1 h -3 v -1 h -3 v -1 h -3 v -1 h -4 v -1 h -3 v -1 h -5 v -1 h -5 v -1 h -7 v -1 h -11 v -1" /></g></g></g><g
         id="g322"><g
           clip-path="url(#clipPath328)"
           id="g324"><path
             id="path348"
             style="fill:url(#linearGradient346);fill-opacity:1;fill-rule:nonzero;stroke:none"
             d="m 688.457,317.941 c 0,0 -8.301,-57.75 20.957,-90.851 29.238,-33.141 84.863,-29.059 84.863,-29.059 0,0 8.243,57.77 -20.957,90.91 -23.457,26.547 -63.906,29.149 -78.984,29.149 -3.731,0 -5.879,-0.149 -5.879,-0.149" /></g></g><g
         id="g350"><g
           clip-path="url(#clipPath356)"
           id="g352"><g
             clip-path="url(#clipPath362)"
             id="g358"><path
               id="path382"
               style="fill:url(#linearGradient380);fill-opacity:1;fill-rule:nonzero;stroke:none"
               d="m 782,197 v 1 h -12 v 1 h -7 v 1 h -5 v 1 h -4 v 1 h -4 v 1 h -3 v 1 h -3 v 1 h -3 v 1 h -3 v 1 h -2 v 1 h -2 v 1 h -2 v 1 h -2 v 1 h -2 v 1 h -2 v 1 h -1 v 1 h -2 v 1 h -2 v 1 h -1 v 1 h -1 v 1 h -1 v 1 h -2 v 1 h -1 v 1 h -1 v 1 h -1 v 1 h -1 v 1 h -1 v 1 h -1 v 1 h -1 v 1 h -1 v 1 h -1 v 2 h -1 v 1 h -1 v 1 h -1 v 2 h -1 v 1 h -1 v 2 h -1 v 2 h -1 v 1 h -1 v 2 h -1 v 2 h -1 v 2 h -1 v 3 h -1 v 3 h -1 v 2 h -1 v 3 h -1 v 4 h -1 v 4 h -1 v 5 h -1 v 6 h -1 v 8 h -1 v 30 h 1 v 4 h 1 v 1 h 10 v -1 h 13 v -1 h 7 v -1 h 5 v -1 h 5 v -1 h 4 v -1 h 3 v -1 h 3 v -1 h 3 v -1 h 2 v -1 h 2 v -1 h 3 v -1 h 2 v -1 h 2 v -1 h 2 v -1 h 1 v -1 h 2 v -1 h 1 v -1 h 2 v -1 h 1 v -1 h 2 v -1 h 1 v -1 h 1 v -1 h 2 v -1 h 1 v -1 h 1 v -1 h 1 v -1 h 1 v -1 h 1 v -1 h 1 v -1 h 1 v -2 h 1 v -1 h 1 v -1 h 1 v -2 h 1 v -1 h 1 v -2 h 1 v -1 h 1 v -2 h 1 v -2 h 1 v -2 h 1 v -2 h 1 v -2 h 1 v -3 h 1 v -2 h 1 v -3 h 1 v -3 h 1 v -4 h 1 v -4 h 1 v -5 h 1 v -7 h 1 v -10 h 1 v -22 h -1 v -8 h -1 v -1" /></g></g></g><g
         id="g384"><g
           clip-path="url(#clipPath390)"
           id="g386"><path
             id="path410"
             style="fill:url(#linearGradient408);fill-opacity:1;fill-rule:nonzero;stroke:none"
             d="M 133.125,1000.53 C 122.422,893.512 148.34,778.43 190.418,683.922 226.328,603.32 277.109,532.289 346.797,481.102 397.656,443.68 454.188,414.949 512.656,391.621 514.219,314.75 567.43,264.18 622.363,222.43 c 7.473,-5.621 17.567,5.961 10.039,11.691 -50.117,37.949 -99.941,82.738 -104.55,151.629 15.214,-5.789 30.527,-11.391 45.878,-16.57 74.102,-25.078 150.508,-43.782 227.821,-56.711 3.312,-0.559 6.816,2.301 6.515,6 -0.195,2.531 -0.371,5.101 -0.566,7.703 -0.039,0.566 -0.137,1.047 -0.371,1.476 -0.41,1.762 -1.641,3.161 -3.828,3.571 -81.074,13.621 -161.211,33.453 -238.555,60.761 -98.937,34.969 -201.523,82.739 -272.891,163.598 -41.769,47.344 -76.445,106.711 -101.281,171.371 0.071,0.02 0.149,0.071 0.305,0.141 75.449,54.992 133.984,128.871 171.035,216.43 0.254,0.562 0.332,1.109 0.399,1.589 0.675,2.36 0.039,4.789 -2.645,5.86 -2.188,0.902 -4.348,1.832 -6.543,2.73 -2.539,1 -5.996,0.332 -7.266,-2.699 -35.332,-83.379 -90.343,-153.551 -161.757,-206.48 -28.711,81.73 -41.68,170.671 -33.418,253.468 0.273,2.812 -0.918,6.272 -4.063,6.492 -2.375,0.26 -4.719,0.41 -7.09,0.6 -0.195,0 -0.343,0 -0.5,0 -2.605,0 -5.625,-1.49 -5.906,-4.55" /></g></g><g
         id="g412"><g
           clip-path="url(#clipPath418)"
           id="g414"><g
             clip-path="url(#clipPath424)"
             id="g420"><path
               id="path444"
               style="fill:url(#linearGradient442);fill-opacity:1;fill-rule:nonzero;stroke:none"
               d="m 622,221 v 1 h -1 v 1 h -1 v 1 h -2 v 1 h -1 v 1 h -1 v 1 h -1 v 1 h -2 v 1 h -1 v 1 h -1 v 1 h -1 v 1 h -2 v 1 h -1 v 1 h -1 v 1 h -1 v 1 h -2 v 1 h -1 v 1 h -1 v 1 h -1 v 1 h -1 v 1 h -2 v 1 h -1 v 1 h -1 v 1 h -1 v 1 h -1 v 1 h -1 v 1 h -1 v 1 h -2 v 1 h -1 v 1 h -1 v 1 h -1 v 1 h -1 v 1 h -1 v 1 h -1 v 1 h -2 v 1 h -1 v 1 h -1 v 1 h -1 v 1 h -1 v 1 h -1 v 1 h -1 v 1 h -1 v 1 h -1 v 1 h -1 v 1 h -1 v 1 h -1 v 1 h -1 v 1 h -1 v 1 h -1 v 1 h -1 v 1 h -1 v 1 h -1 v 1 h -1 v 2 h -1 v 1 h -1 v 1 h -1 v 1 h -1 v 1 h -1 v 2 h -1 v 1 h -1 v 1 h -1 v 1 h -1 v 2 h -1 v 1 h -1 v 1 h -1 v 1 h -1 v 1 h -1 v 2 h -1 v 1 h -1 v 1 h -1 v 2 h -1 v 1 h -1 v 2 h -1 v 1 h -1 v 2 h -1 v 1 h -1 v 2 h -1 v 1 h -1 v 2 h -1 v 2 h -1 v 1 h -1 v 2 h -1 v 1 h -1 v 2 h -1 v 2 h -1 v 2 h -1 v 2 h -1 v 3 h -1 v 2 h -1 v 2 h -1 v 2 h -1 v 2 h -1 v 2 h -1 v 3 h -1 v 3 h -1 v 3 h -1 v 4 h -1 v 3 h -1 v 4 h -1 v 3 h -1 v 4 h -1 v 6 h -1 v 7 h -1 v 8 h -1 v 8 h -1 v 1 h -2 v 1 h -3 v 1 h -2 v 1 h -3 v 1 h -2 v 1 h -2 v 1 h -3 v 1 h -2 v 1 h -2 v 1 h -3 v 1 h -2 v 1 h -2 v 1 h -2 v 1 h -3 v 1 h -2 v 1 h -2 v 1 h -3 v 1 h -2 v 1 h -2 v 1 h -2 v 1 h -2 v 1 h -2 v 1 h -2 v 1 h -2 v 1 h -2 v 1 h -2 v 1 h -2 v 1 h -2 v 1 h -2 v 1 h -2 v 1 h -2 v 1 h -2 v 1 h -2 v 1 h -2 v 1 h -2 v 1 h -2 v 1 h -2 v 1 h -2 v 1 h -2 v 1 h -2 v 1 h -2 v 1 h -2 v 1 h -1 v 1 h -2 v 1 h -2 v 1 h -2 v 1 h -1 v 1 h -2 v 1 h -2 v 1 h -2 v 1 h -1 v 1 h -2 v 1 h -2 v 1 h -2 v 1 h -1 v 1 h -2 v 1 h -2 v 1 h -2 v 1 h -1 v 1 h -2 v 1 h -2 v 1 h -1 v 1 h -2 v 1 h -2 v 1 h -1 v 1 h -2 v 1 h -1 v 1 h -2 v 1 h -1 v 1 h -2 v 1 h -1 v 1 h -2 v 1 h -1 v 1 h -2 v 1 h -1 v 1 h -2 v 1 h -1 v 1 h -2 v 1 h -1 v 1 h -2 v 1 h -2 v 1 h -1 v 1 h -1 v 1 h -2 v 1 h -1 v 1 h -1 v 1 h -2 v 1 h -1 v 1 h -2 v 1 h -1 v 1 h -1 v 1 h -2 v 1 h -1 v 1 h -1 v 1 h -2 v 1 h -1 v 1 h -1 v 1 h -1 v 1 h -1 v 1 h -2 v 1 h -1 v 1 h -1 v 1 h -1 v 1 h -2 v 1 h -1 v 1 h -1 v 1 h -1 v 1 h -1 v 1 h -2 v 1 h -1 v 1 h -1 v 1 h -1 v 1 h -1 v 1 h -1 v 1 h -1 v 1 h -1 v 1 h -1 v 1 h -1 v 1 h -2 v 1 h -1 v 1 h -1 v 1 h -1 v 1 h -1 v 1 h -1 v 1 h -1 v 1 h -1 v 1 h -1 v 1 h -1 v 1 h -1 v 1 h -1 v 1 h -1 v 1 h -1 v 1 h -1 v 1 h -1 v 1 h -1 v 1 h -1 v 1 h -1 v 1 h -1 v 1 h -1 v 1 h -1 v 1 h -1 v 1 h -1 v 1 h -1 v 1 h -1 v 2 h -1 v 1 h -1 v 1 h -1 v 1 h -1 v 1 h -1 v 1 h -1 v 1 h -1 v 1 h -1 v 1 h -1 v 1 h -1 v 1 h -1 v 2 h -1 v 1 h -1 v 1 h -1 v 1 h -1 v 2 h -1 v 1 h -1 v 1 h -1 v 1 h -1 v 2 h -1 v 1 h -1 v 1 h -1 v 1 h -1 v 2 h -1 v 1 h -1 v 1 h -1 v 1 h -1 v 1 h -1 v 2 h -1 v 1 h -1 v 1 h -1 v 2 h -1 v 1 h -1 v 2 h -1 v 1 h -1 v 1 h -1 v 2 h -1 v 1 h -1 v 2 h -1 v 1 h -1 v 1 h -1 v 2 h -1 v 1 h -1 v 2 h -1 v 1 h -1 v 2 h -1 v 1 h -1 v 1 h -1 v 2 h -1 v 1 h -1 v 2 h -1 v 2 h -1 v 1 h -1 v 2 h -1 v 2 h -1 v 1 h -1 v 2 h -1 v 1 h -1 v 2 h -1 v 2 h -1 v 1 h -1 v 2 h -1 v 1 h -1 v 2 h -1 v 2 h -1 v 1 h -1 v 2 h -1 v 2 h -1 v 2 h -1 v 2 h -1 v 1 h -1 v 2 h -1 v 2 h -1 v 2 h -1 v 2 h -1 v 2 h -1 v 2 h -1 v 1 h -1 v 2 h -1 v 2 h -1 v 2 h -1 v 2 h -1 v 2 h -1 v 2 h -1 v 2 h -1 v 2 h -1 v 2 h -1 v 2 h -1 v 2 h -1 v 2 h -1 v 2 h -1 v 2 h -1 v 3 h -1 v 2 h -1 v 2 h -1 v 2 h -1 v 3 h -1 v 2 h -1 v 2 h -1 v 2 h -1 v 3 h -1 v 2 h -1 v 3 h -1 v 2 h -1 v 3 h -1 v 2 h -1 v 3 h -1 v 2 h -1 v 3 h -1 v 2 h -1 v 3 h -1 v 3 h -1 v 3 h -1 v 3 h -1 v 2 h -1 v 3 h -1 v 3 h -1 v 3 h -1 v 3 h -1 v 3 h -1 v 3 h -1 v 3 h -1 v 2 h -1 v 3 h -1 v 4 h -1 v 3 h -1 v 4 h -1 v 3 h -1 v 4 h -1 v 3 h -1 v 4 h -1 v 3 h -1 v 4 h -1 v 3 h -1 v 4 h -1 v 4 h -1 v 5 h -1 v 4 h -1 v 5 h -1 v 4 h -1 v 5 h -1 v 4 h -1 v 4 h -1 v 5 h -1 v 6 h -1 v 6 h -1 v 7 h -1 v 6 h -1 v 6 h -1 v 6 h -1 v 9 h -1 v 10 h -1 v 11 h -1 v 11 h -1 v 34 h -1 v 16 h 1 v 23 h 1 v 12 h 1 v 3 h 1 v 1 h 1 v 1 h 3 v 1 h 3 v -1 h 8 v -1 h 1 v -2 h 1 v -11 h -1 v -17 h -1 v -50 h 1 v -20 h 1 v -9 h 1 v -10 h 1 v -9 h 1 v -8 h 1 v -6 h 1 v -6 h 1 v -6 h 1 v -6 h 1 v -6 h 1 v -5 h 1 v -4 h 1 v -5 h 1 v -4 h 1 v -5 h 1 v -5 h 1 v -4 h 1 v -4 h 1 v -3 h 1 v -4 h 1 v -4 h 1 v -4 h 1 v -3 h 1 v -4 h 1 v -4 h 1 v -3 h 1 v -3 h 1 v -3 h 1 v -3 h 1 v -4 h 1 v -3 h 1 v -3 h 1 v -3 h 1 v -3 h 1 v -2 h 2 v 1 h 1 v 1 h 1 v 1 h 2 v 1 h 1 v 1 h 1 v 1 h 1 v 1 h 2 v 1 h 1 v 1 h 1 v 1 h 1 v 1 h 2 v 1 h 1 v 1 h 1 v 1 h 1 v 1 h 1 v 1 h 2 v 1 h 1 v 1 h 1 v 1 h 1 v 1 h 2 v 1 h 1 v 1 h 1 v 1 h 1 v 1 h 1 v 1 h 1 v 1 h 1 v 1 h 1 v 1 h 1 v 1 h 1 v 1 h 2 v 1 h 1 v 1 h 1 v 1 h 1 v 1 h 1 v 1 h 1 v 1 h 1 v 1 h 1 v 1 h 1 v 1 h 1 v 1 h 2 v 1 h 1 v 1 h 1 v 1 h 1 v 1 h 1 v 1 h 1 v 2 h 1 v 1 h 1 v 1 h 1 v 1 h 1 v 1 h 1 v 1 h 1 v 1 h 1 v 1 h 1 v 1 h 1 v 1 h 1 v 1 h 1 v 1 h 1 v 1 h 1 v 1 h 1 v 1 h 1 v 1 h 1 v 1 h 1 v 1 h 1 v 1 h 1 v 1 h 1 v 2 h 1 v 1 h 1 v 1 h 1 v 1 h 1 v 1 h 1 v 2 h 1 v 1 h 1 v 1 h 1 v 1 h 1 v 1 h 1 v 2 h 1 v 1 h 1 v 1 h 1 v 1 h 1 v 1 h 1 v 1 h 1 v 2 h 1 v 1 h 1 v 1 h 1 v 1 h 1 v 2 h 1 v 1 h 1 v 1 h 1 v 2 h 1 v 1 h 1 v 1 h 1 v 2 h 1 v 1 h 1 v 1 h 1 v 2 h 1 v 1 h 1 v 2 h 1 v 1 h 1 v 1 h 1 v 2 h 1 v 1 h 1 v 1 h 1 v 2 h 1 v 1 h 1 v 2 h 1 v 1 h 1 v 2 h 1 v 1 h 1 v 2 h 1 v 1 h 1 v 2 h 1 v 2 h 1 v 1 h 1 v 2 h 1 v 1 h 1 v 2 h 1 v 1 h 1 v 2 h 1 v 2 h 1 v 1 h 1 v 2 h 1 v 1 h 1 v 2 h 1 v 2 h 1 v 2 h 1 v 2 h 1 v 1 h 1 v 2 h 1 v 2 h 1 v 2 h 1 v 2 h 1 v 2 h 1 v 1 h 1 v 2 h 1 v 2 h 1 v 2 h 1 v 2 h 1 v 2 h 1 v 2 h 1 v 2 h 1 v 2 h 1 v 2 h 1 v 2 h 1 v 2 h 1 v 2 h 1 v 2 h 1 v 2 h 1 v 2 h 1 v 3 h 1 v 2 h 1 v 2 h 1 v 2 h 1 v 3 h 1 v 1 h 1 v 1 h 3 v 1 h 2 v -1 h 3 v -1 h 3 v -1 h 2 v -1 h 2 v -2 h 1 v -6 h -1 v -2 h -1 v -3 h -1 v -2 h -1 v -2 h -1 v -2 h -1 v -2 h -1 v -2 h -1 v -3 h -1 v -2 h -1 v -2 h -1 v -2 h -1 v -2 h -1 v -2 h -1 v -2 h -1 v -2 h -1 v -2 h -1 v -2 h -1 v -2 h -1 v -2 h -1 v -1 h -1 v -2 h -1 v -2 h -1 v -2 h -1 v -2 h -1 v -1 h -1 v -2 h -1 v -2 h -1 v -2 h -1 v -2 h -1 v -2 h -1 v -1 h -1 v -2 h -1 v -2 h -1 v -1 h -1 v -2 h -1 v -2 h -1 v -1 h -1 v -2 h -1 v -1 h -1 v -2 h -1 v -1 h -1 v -2 h -1 v -2 h -1 v -1 h -1 v -2 h -1 v -1 h -1 v -2 h -1 v -1 h -1 v -2 h -1 v -2 h -1 v -1 h -1 v -1 h -1 v -2 h -1 v -1 h -1 v -1 h -1 v -2 h -1 v -1 h -1 v -1 h -1 v -2 h -1 v -1 h -1 v -2 h -1 v -1 h -1 v -1 h -1 v -2 h -1 v -1 h -1 v -1 h -1 v -2 h -1 v -1 h -1 v -1 h -1 v -2 h -1 v -1 h -1 v -1 h -1 v -2 h -1 v -1 h -1 v -1 h -1 v -1 h -1 v -1 h -1 v -1 h -1 v -2 h -1 v -1 h -1 v -1 h -1 v -1 h -1 v -1 h -1 v -1 h -1 v -2 h -1 v -1 h -1 v -1 h -1 v -1 h -1 v -1 h -1 v -2 h -1 v -1 h -1 v -1 h -1 v -1 h -1 v -1 h -1 v -1 h -1 v -1 h -1 v -1 h -1 v -1 h -1 v -1 h -1 v -1 h -1 v -1 h -1 v -1 h -1 v -2 h -1 v -1 h -1 v -1 h -1 v -1 h -1 v -1 h -1 v -1 h -1 v -1 h -1 v -1 h -1 v -1 h -1 v -1 h -1 v -1 h -1 v -1 h -1 v -1 h -1 v -1 h -1 v -1 h -1 v -1 h -1 v -1 h -1 v -1 h -1 v -1 h -2 v -1 h -1 v -1 h -1 v -1 h -1 v -1 h -1 v -1 h -1 v -1 h -1 v -1 h -1 v -1 h -1 v -1 h -2 v -1 h -1 v -1 h -1 v -1 h -1 v -1 h -1 v -1 h -1 v -1 h -1 v -1 h -1 v -1 h -1 v -1 h -2 v -1 h -1 v -1 h -1 v -1 h -1 v -1 h -1 v -1 h -2 v -1 h -1 v -1 h -1 v -1 h -1 v -1 h -2 v -1 h -1 v -1 h -1 v -1 h -1 v -1 h -2 v -1 h -1 v -1 h -1 v -1 h -1 v -1 h -2 v -1 h -1 v -1 h -1 v -1 h -2 v -1 h -1 v -1 h -1 v -1 h -2 v -1 h 1 v -2 h 1 v -3 h 1 v -2 h 1 v -3 h 1 v -2 h 1 v -2 h 1 v -3 h 1 v -2 h 1 v -3 h 1 v -2 h 1 v -2 h 1 v -2 h 1 v -3 h 1 v -2 h 1 v -2 h 1 v -2 h 1 v -2 h 1 v -3 h 1 v -2 h 1 v -2 h 1 v -2 h 1 v -2 h 1 v -2 h 1 v -2 h 1 v -2 h 1 v -2 h 1 v -2 h 1 v -2 h 1 v -2 h 1 v -2 h 1 v -2 h 1 v -2 h 1 v -1 h 1 v -2 h 1 v -2 h 1 v -2 h 1 v -1 h 1 v -2 h 1 v -2 h 1 v -2 h 1 v -2 h 1 v -1 h 1 v -2 h 1 v -2 h 1 v -2 h 1 v -1 h 1 v -2 h 1 v -1 h 1 v -2 h 1 v -2 h 1 v -1 h 1 v -2 h 1 v -1 h 1 v -2 h 1 v -2 h 1 v -1 h 1 v -2 h 1 v -1 h 1 v -2 h 1 v -1 h 1 v -2 h 1 v -1 h 1 v -2 h 1 v -1 h 1 v -2 h 1 v -1 h 1 v -2 h 1 v -1 h 1 v -1 h 1 v -2 h 1 v -1 h 1 v -2 h 1 v -1 h 1 v -1 h 1 v -2 h 1 v -1 h 1 v -1 h 1 v -2 h 1 v -1 h 1 v -1 h 1 v -2 h 1 v -1 h 1 v -1 h 1 v -2 h 1 v -1 h 1 v -1 h 1 v -1 h 1 v -2 h 1 v -1 h 1 v -1 h 1 v -1 h 1 v -1 h 1 v -2 h 1 v -1 h 1 v -1 h 1 v -1 h 1 v -2 h 1 v -1 h 1 v -1 h 1 v -1 h 1 v -1 h 1 v -1 h 1 v -1 h 1 v -1 h 1 v -2 h 1 v -1 h 1 v -1 h 1 v -1 h 1 v -1 h 1 v -1 h 1 v -1 h 1 v -1 h 1 v -1 h 1 v -1 h 1 v -1 h 1 v -1 h 1 v -1 h 1 v -1 h 1 v -1 h 1 v -1 h 1 v -1 h 1 v -1 h 1 v -1 h 1 v -1 h 1 v -1 h 1 v -1 h 1 v -1 h 1 v -1 h 1 v -1 h 1 v -1 h 2 v -1 h 1 v -1 h 1 v -1 h 1 v -1 h 1 v -1 h 2 v -1 h 1 v -1 h 1 v -1 h 1 v -1 h 1 v -1 h 1 v -1 h 2 v -1 h 1 v -1 h 1 v -1 h 1 v -1 h 1 v -1 h 2 v -1 h 1 v -1 h 1 v -1 h 1 v -1 h 1 v -1 h 1 v -1 h 2 v -1 h 1 v -1 h 1 v -1 h 1 v -1 h 2 v -1 h 1 v -1 h 2 v -1 h 1 v -1 h 1 v -1 h 2 v -1 h 1 v -1 h 2 v -1 h 1 v -1 h 1 v -1 h 2 v -1 h 1 v -1 h 2 v -1 h 1 v -1 h 1 v -1 h 2 v -1 h 1 v -1 h 2 v -1 h 1 v -1 h 1 v -1 h 2 v -1 h 1 v -1 h 2 v -1 h 1 v -1 h 2 v -1 h 2 v -1 h 1 v -1 h 2 v -1 h 2 v -1 h 1 v -1 h 2 v -1 h 2 v -1 h 1 v -1 h 2 v -1 h 2 v -1 h 1 v -1 h 2 v -1 h 2 v -1 h 1 v -1 h 2 v -1 h 1 v -1 h 2 v -1 h 2 v -1 h 2 v -1 h 1 v -1 h 2 v -1 h 2 v -1 h 2 v -1 h 2 v -1 h 2 v -1 h 2 v -1 h 2 v -1 h 2 v -1 h 2 v -1 h 2 v -1 h 1 v -1 h 2 v -1 h 2 v -1 h 2 v -1 h 2 v -1 h 2 v -1 h 2 v -1 h 2 v -1 h 2 v -1 h 2 v -1 h 2 v -1 h 3 v -1 h 2 v -1 h 2 v -1 h 2 v -1 h 2 v -1 h 3 v -1 h 2 v -1 h 2 v -1 h 2 v -1 h 2 v -1 h 2 v -1 h 3 v -1 h 2 v -1 h 2 v -1 h 3 v -1 h 2 v -1 h 2 v -1 h 3 v -1 h 2 v -1 h 3 v -1 h 2 v -1 h 3 v -1 h 2 v -1 h 3 v -1 h 2 v -1 h 2 v -1 h 3 v -1 h 2 v -1 h 3 v -1 h 3 v -1 h 2 v -1 h 3 v -1 h 3 v -1 h 2 v -1 h 3 v -1 h 3 v -1 h 2 v -1 h 3 v -1 h 3 v -1 h 3 v -1 h 2 v -1 h 3 v -1 h 3 v -1 h 3 v -1 h 3 v -1 h 3 v -1 h 2 v -1 h 3 v -1 h 4 v -1 h 3 v -1 h 3 v -1 h 3 v -1 h 3 v -1 h 3 v -1 h 3 v -1 h 4 v -1 h 3 v -1 h 3 v -1 h 3 v -1 h 3 v -1 h 3 v -1 h 4 v -1 h 4 v -1 h 3 v -1 h 4 v -1 h 3 v -1 h 4 v -1 h 4 v -1 h 3 v -1 h 4 v -1 h 3 v -1 h 4 v -1 h 4 v -1 h 3 v -1 h 4 v -1 h 4 v -1 h 3 v -1 h 4 v -1 h 4 v -1 h 5 v -1 h 4 v -1 h 4 v -1 h 5 v -1 h 4 v -1 h 5 v -1 h 4 v -1 h 4 v -1 h 5 v -1 h 4 v -1 h 4 v -1 h 5 v -1 h 4 v -1 h 5 v -1 h 6 v -1 h 5 v -1 h 5 v -1 h 5 v -1 h 5 v -1 h 5 v -1 h 5 v -1 h 6 v -1 h 6 v -1 h 6 v -1 h 1 v -1 h 1 v -1 h 1 v -9 h 1 v -3 h -1 v -2 h -1 v -2 h -2 v -1 h -7 v 1 h -6 v 1 h -6 v 1 h -5 v 1 h -5 v 1 h -6 v 1 h -5 v 1 h -5 v 1 h -5 v 1 h -5 v 1 h -5 v 1 h -5 v 1 h -4 v 1 h -5 v 1 h -4 v 1 h -5 v 1 h -4 v 1 h -4 v 1 h -5 v 1 h -4 v 1 h -5 v 1 h -4 v 1 h -4 v 1 h -5 v 1 h -4 v 1 h -3 v 1 h -4 v 1 h -4 v 1 h -4 v 1 h -3 v 1 h -4 v 1 h -4 v 1 h -3 v 1 h -4 v 1 h -4 v 1 h -4 v 1 h -3 v 1 h -4 v 1 h -4 v 1 h -3 v 1 h -3 v 1 h -4 v 1 h -3 v 1 h -3 v 1 h -4 v 1 h -3 v 1 h -3 v 1 h -3 v 1 h -4 v 1 h -3 v 1 h -3 v 1 h -3 v 1 h -3 v 1 h -3 v 1 h -3 v 1 h -3 v 1 h -3 v 1 h -3 v 1 h -3 v 1 h -3 v 1 h -3 v 1 h -2 v 1 h -3 v 1 h -3 v 1 h -3 v 1 h -2 v 1 h -3 v 1 h -3 v 1 h -3 v 1 h -2 v 1 h -3 v 1 h -3 v 1 h -3 v 1 h -1 v -1 h 1 v -8 h 1 v -6 h 1 v -5 h 1 v -5 h 1 v -3 h 1 v -3 h 1 v -3 h 1 v -3 h 1 v -3 h 1 v -3 h 1 v -3 h 1 v -2 h 1 v -2 h 1 v -2 h 1 v -2 h 1 v -2 h 1 v -2 h 1 v -2 h 1 v -2 h 1 v -2 h 1 v -2 h 1 v -1 h 1 v -2 h 1 v -1 h 1 v -2 h 1 v -1 h 1 v -2 h 1 v -1 h 1 v -1 h 1 v -2 h 1 v -1 h 1 v -2 h 1 v -1 h 1 v -2 h 1 v -1 h 1 v -1 h 1 v -1 h 1 v -2 h 1 v -1 h 1 v -1 h 1 v -1 h 1 v -1 h 1 v -1 h 1 v -1 h 1 v -2 h 1 v -1 h 1 v -1 h 1 v -1 h 1 v -1 h 1 v -1 h 1 v -1 h 1 v -1 h 1 v -1 h 1 v -1 h 1 v -1 h 1 v -1 h 1 v -1 h 1 v -1 h 1 v -1 h 1 v -1 h 1 v -1 h 1 v -1 h 1 v -1 h 1 v -1 h 1 v -1 h 1 v -1 h 1 v -1 h 1 v -1 h 1 v -1 h 2 v -1 h 1 v -1 h 1 v -1 h 1 v -1 h 1 v -1 h 1 v -1 h 2 v -1 h 1 v -1 h 1 v -1 h 1 v -1 h 1 v -1 h 2 v -1 h 1 v -1 h 1 v -1 h 1 v -1 h 1 v -1 h 2 v -1 h 1 v -1 h 1 v -1 h 1 v -1 h 2 v -1 h 1 v -1 h 1 v -1 h 2 v -1 h 1 v -1 h 1 v -1 h 1 v -1 h 2 v -1 h 1 v -1 h 1 v -1 h 1 v -3 h 1 v -2 h -1 v -3 h -1 v -1 h -1 v -1 h -1 v -1 h -1 v -1" /></g></g></g><path
         id="path446"
         style="fill:#FFFFFF;fill-opacity:1;fill-rule:nonzero;stroke:none"
         d="m 989.004,328.828 c 17.786,0 31.906,6.344 42.386,19.012 8.77,10.59 13.15,22.469 13.15,35.621 0,5.238 -1.25,9.949 -3.74,14.148 -2.5,4.211 -6.92,6.313 -13.25,6.313 -10.6,0 -20.22,-8.774 -28.862,-26.313 -7.793,-15.711 -12.731,-31.968 -14.797,-48.781 z m 13.336,-120.379 c -5.235,0 -10.231,1.102 -14.981,3.281 -10.476,5 -18.332,13.59 -23.566,25.77 -7.066,16.559 -10.594,36.66 -10.594,60.281 0,12.91 1.766,27.16 5.297,42.75 4.629,20.821 11.996,38.289 22.106,52.418 11.933,16.813 26.668,25.223 44.208,25.223 7.43,0 13.33,-1.774 17.72,-5.301 7.55,-6.09 11.33,-15.59 11.33,-28.5 0,-15.473 -5.18,-29.41 -15.53,-41.84 -12.79,-15.222 -29.23,-22.832 -49.326,-22.832 h -6.578 c -0.977,-6.82 -1.461,-14.679 -1.461,-23.558 0,-19.012 2.742,-35.961 8.223,-50.879 5.48,-14.922 13.572,-22.383 24.302,-22.383 15.09,0 36.41,16.082 63.93,48.23 15.59,18.141 30.63,38.243 45.12,60.282 0.98,1.578 2.25,2.371 3.84,2.371 0.85,0 1.71,-0.242 2.56,-0.723 1.34,-0.73 2.01,-1.949 2.01,-3.66 0,-0.848 -0.25,-1.699 -0.73,-2.551 -22.66,-35.808 -47.2,-65.887 -73.62,-90.246 -9.02,-8.402 -17.72,-15.191 -26.13,-20.363 -8.4,-5.18 -17.78,-7.77 -28.13,-7.77" /><path
         id="path448"
         style="fill:#FFFFFF;fill-opacity:1;fill-rule:nonzero;stroke:none"
         d="m 1236.35,215.941 c -6.21,0 -11.56,1.95 -16.07,5.84 -6.7,5.848 -10.05,15.348 -10.05,28.5 0,13.399 1.95,29.41 5.85,48.051 4.38,22.039 6.57,39.758 6.57,53.156 0,9.981 -1.82,14.981 -5.48,14.981 -1.46,0 -3.04,-0.86 -4.75,-2.559 -5.84,-6.09 -11.57,-14.32 -17.17,-24.66 -12.3,-22.898 -23.02,-47.871 -32.15,-74.898 -5.6,-16.813 -14.74,-25.211 -27.4,-25.211 -11.09,0 -16.63,13.64 -16.63,40.918 0.37,32.761 1.71,50.242 4.02,52.429 0.98,0.852 2.07,1.274 3.29,1.274 5.36,0 10.48,-1.274 15.34,-3.821 4.27,-2.332 6.4,-5.191 6.4,-8.601 -1.1,-14 -1.71,-27.891 -1.83,-41.649 0,-10.953 0.43,-19.671 1.28,-26.121 2.68,3.782 4.81,8.039 6.39,12.789 10.97,33.371 24.48,62.961 40.56,88.782 11.2,18.031 22.53,27.039 33.98,27.039 4.99,0 9.38,-1.59 13.15,-4.75 4.39,-3.66 7.07,-8.532 8.04,-14.61 0.61,-3.289 0.92,-6.582 0.92,-9.871 0,-13.879 -2.26,-31.91 -6.77,-54.078 -2.92,-14.73 -4.81,-29.34 -5.66,-43.84 -0.12,-0.121 -0.18,-1.222 -0.18,-3.293 0,-1.816 0.09,-4.316 0.27,-7.488 0.19,-3.16 0.89,-6.328 2.11,-9.5 1.21,-3.16 3.4,-4.75 6.57,-4.75 2.56,0 5.36,1.281 8.4,3.84 16.69,14.371 40.74,46.89 72.16,97.551 0.98,1.578 2.31,2.371 4.02,2.371 0.85,0 1.64,-0.172 2.38,-0.543 1.46,-0.848 2.19,-2.129 2.19,-3.84 0,-0.719 -0.31,-1.578 -0.91,-2.551 -28.87,-45.18 -50.18,-75.199 -63.94,-90.066 -12.79,-13.883 -24.42,-20.821 -34.9,-20.821" /><path
         id="path450"
         style="fill:#FFFFFF;fill-opacity:1;fill-rule:nonzero;stroke:none"
         d="m 1354.55,346.012 c 10.23,9.859 20.22,21.547 29.96,35.07 18.63,26.059 35.38,53.156 50.24,81.297 25.45,47.98 40.31,89.512 44.57,124.59 0.61,4.383 0.91,8.64 0.91,12.781 0,5.238 -0.48,11.109 -1.46,17.629 -0.97,6.512 -3.89,12.391 -8.77,17.633 -4.87,5.238 -12.29,7.859 -22.28,7.859 -18.76,0 -35.5,-15.23 -50.24,-45.68 -12.18,-25.089 -22.1,-56.441 -29.77,-94.082 -9.14,-44.449 -13.71,-87.8 -13.71,-130.07 0,-9.008 0.18,-18.027 0.55,-27.027 z m 106.87,-111.621 c -8.04,0 -14.13,1.949 -18.27,5.847 -6.46,5.961 -9.68,15.102 -9.68,27.403 0,6.328 1.28,18.179 3.83,35.531 2.56,17.348 3.84,28.519 3.84,33.519 0,7.911 -1.71,11.879 -5.11,11.879 -3.05,0 -7.01,-3.66 -11.88,-10.968 -6.45,-9.622 -12.3,-19.793 -17.53,-30.512 -10.48,-21.192 -18.88,-35.738 -25.21,-43.66 -5.85,-7.301 -11.82,-10.95 -17.91,-10.95 -5.72,0 -10.47,2.071 -14.25,6.211 -6.57,6.938 -11.45,16.918 -14.61,29.957 -5.85,23.993 -8.77,50.231 -8.77,78.731 0,56.019 7.25,110.281 21.74,162.769 9.26,33.864 21.07,61.512 35.44,82.942 17.29,26.058 37.57,39.09 60.83,39.09 24.48,0 39.04,-10.95 43.66,-32.879 1.22,-6.211 1.83,-12.852 1.83,-19.91 0,-4.02 -0.24,-8.161 -0.73,-12.422 -2.32,-20.231 -7.25,-40.141 -14.8,-59.739 -20.46,-53.101 -47.8,-103.468 -82.02,-151.082 -13.04,-18.027 -25.21,-31.789 -36.54,-41.277 1.71,-24.371 5.91,-44.039 12.6,-59.019 1.35,-3.161 2.99,-4.743 4.94,-4.743 2.43,0 4.81,1.821 7.13,5.481 5.23,8.648 12.23,21.621 21,38.91 9.26,18.262 17.97,31.789 26.13,40.559 7.54,8.152 15.4,12.242 23.56,12.242 6.09,0 10.78,-3.051 14.07,-9.141 2.92,-5.109 4.38,-11.871 4.38,-20.281 0,-6.57 -1.34,-18.469 -4.02,-35.707 -2.68,-17.242 -4.02,-30.242 -4.02,-39.012 0,-11.441 3.17,-17.16 9.51,-17.16 4.99,0 10.59,2.488 16.8,7.488 20.46,16.321 41.65,41.953 63.57,76.903 0.98,1.578 2.32,2.371 4.03,2.371 0.85,0 1.64,-0.242 2.37,-0.723 1.46,-0.73 2.19,-1.949 2.19,-3.66 0,-0.848 -0.31,-1.699 -0.91,-2.551 -39.71,-61.629 -72.1,-92.437 -97.19,-92.437" /><path
         id="path452"
         style="fill:#FFFFFF;fill-opacity:1;fill-rule:nonzero;stroke:none"
         d="m 1678.08,243.52 c -15.23,0 -25.09,9.199 -29.59,27.589 -2.2,8.891 -3.29,19.723 -3.29,32.52 0,7.301 0.3,14.359 0.91,21.191 -8.28,-17.422 -17.78,-31.91 -28.5,-43.48 -13.52,-14.5 -27.95,-21.75 -43.29,-21.75 -9.14,0 -16.44,2.75 -21.93,8.23 -6.58,6.821 -9.86,16.071 -9.86,27.77 0,6.57 1.09,13.82 3.28,21.742 2.2,7.906 5.24,15.398 9.14,22.469 8.28,14.847 19.15,26.91 32.61,36.168 13.46,9.25 28.47,13.883 45.03,13.883 8.52,0 16.38,-2.372 23.57,-7.122 1.1,-0.859 1.7,-1.949 1.82,-3.289 0,-1.101 -0.43,-2.132 -1.28,-3.113 -1.09,-1.328 -2.37,-2.008 -3.83,-2.008 -0.98,0 -1.83,0.25 -2.56,0.731 -3.41,2.07 -7.24,3.109 -11.51,3.109 -3.29,0 -8.01,-1.012 -14.16,-3.019 -6.15,-2 -12.08,-5.2 -17.81,-9.59 -11.08,-8.52 -19.67,-18.629 -25.76,-30.321 -6.69,-13.039 -10.35,-26.671 -10.96,-40.921 0,-3.047 0.37,-6.25 1.1,-9.59 0.73,-3.36 2.29,-6.34 4.66,-8.949 2.37,-2.622 5.57,-3.93 9.59,-3.93 3.29,0 6.4,0.789 9.32,2.371 11.08,6.82 20.64,16.379 28.68,28.687 9.37,14.243 16.07,27.043 20.09,38.352 1.34,4.031 3.41,7.98 6.22,11.879 5.96,7.551 14.06,11.332 24.29,11.332 1.34,0 2.4,-0.43 3.2,-1.281 0.79,-0.848 1.18,-1.942 1.18,-3.289 -3.53,-22.403 -5.3,-41.961 -5.3,-58.641 0,-4.629 0.25,-10.289 0.74,-16.988 0.49,-6.703 2.04,-12.973 4.66,-18.821 2.61,-5.851 6.78,-8.769 12.51,-8.769 5.48,0 12.24,3.109 20.28,9.316 19.11,15.102 37.63,36.91 55.53,65.403 1.1,1.578 2.44,2.371 4.02,2.371 0.85,0 1.64,-0.242 2.38,-0.723 1.46,-0.73 2.19,-1.949 2.19,-3.66 0,-0.848 -0.31,-1.699 -0.91,-2.551 -13.65,-21.066 -27.23,-38.609 -40.74,-52.617 -19.61,-20.461 -38.18,-30.691 -55.72,-30.691" /><path
         id="path454"
         style="fill:#FFFFFF;fill-opacity:1;fill-rule:nonzero;stroke:none"
         d="m 1880.67,215.941 c -6.21,0 -11.56,1.95 -16.07,5.84 -6.7,5.848 -10.05,15.348 -10.05,28.5 0,13.399 1.95,29.41 5.85,48.051 4.39,22.039 6.57,39.758 6.57,53.156 0,9.981 -1.82,14.981 -5.48,14.981 -1.46,0 -3.04,-0.86 -4.75,-2.559 -5.84,-6.09 -11.57,-14.32 -17.17,-24.66 -12.3,-22.898 -23.02,-47.871 -32.15,-74.898 -5.6,-16.813 -14.73,-25.211 -27.4,-25.211 -11.08,0 -16.63,13.64 -16.63,40.918 0.37,32.761 1.71,50.242 4.02,52.429 0.98,0.852 2.07,1.274 3.29,1.274 5.36,0 10.48,-1.274 15.34,-3.821 4.27,-2.332 6.4,-5.191 6.4,-8.601 -1.1,-14 -1.71,-27.891 -1.82,-41.649 0,-10.953 0.42,-19.671 1.27,-26.121 2.68,3.782 4.81,8.039 6.4,12.789 10.96,33.371 24.47,62.961 40.55,88.782 11.2,18.031 22.53,27.039 33.98,27.039 4.99,0 9.38,-1.59 13.15,-4.75 4.39,-3.66 7.07,-8.532 8.04,-14.61 0.61,-3.289 0.92,-6.582 0.92,-9.871 0,-13.879 -2.26,-31.91 -6.77,-54.078 -2.92,-14.73 -4.81,-29.34 -5.66,-43.84 -0.12,-0.121 -0.18,-1.222 -0.18,-3.293 0,-1.816 0.09,-4.316 0.27,-7.488 0.19,-3.16 0.89,-6.328 2.11,-9.5 1.21,-3.16 3.41,-4.75 6.57,-4.75 2.56,0 5.36,1.281 8.4,3.84 16.69,14.371 40.75,46.89 72.17,97.551 0.97,1.578 2.31,2.371 4.01,2.371 0.85,0 1.64,-0.172 2.38,-0.543 1.46,-0.848 2.19,-2.129 2.19,-3.84 0,-0.719 -0.3,-1.578 -0.91,-2.551 -28.87,-45.18 -50.18,-75.199 -63.94,-90.066 -12.79,-13.883 -24.42,-20.821 -34.9,-20.821" /><path
         id="path456"
         style="fill:#FFFFFF;fill-opacity:1;fill-rule:nonzero;stroke:none"
         d="m 2018.78,226.898 c -9.62,0 -18.27,2.743 -25.94,8.223 -16.44,11.809 -24.66,33 -24.66,63.578 0,14.492 2.19,30.383 6.57,47.672 6.58,25.699 18.27,43.91 35.08,54.617 8.52,5.492 17.47,8.223 26.85,8.223 0.61,0 3.53,-0.082 8.77,-0.27 5.24,-0.191 11.87,-3.132 19.92,-8.863 1.21,-0.859 1.82,-1.949 1.82,-3.289 0,-1.09 -0.36,-2.129 -1.1,-3.098 -1.09,-1.339 -2.43,-2.019 -4.01,-2.019 -0.86,0 -1.71,0.25 -2.56,0.738 -4.51,2.93 -9.02,4.379 -13.52,4.379 -3.29,0 -7.8,-1.34 -13.52,-4.008 -5.72,-2.691 -11.14,-7.922 -16.26,-15.711 -6.09,-9.14 -10.59,-19.179 -13.51,-30.148 -4.39,-16.203 -6.58,-32.281 -6.58,-48.223 0,-1.961 0.06,-5.488 0.18,-10.597 0.12,-5.122 1.21,-11.571 3.29,-19.364 2.07,-7.797 5.48,-14.289 10.23,-19.457 4.75,-5.179 11.26,-7.761 19.55,-7.761 8.15,0 16.68,2.3 25.57,6.929 8.89,4.633 16.63,9.692 23.2,15.172 23.14,19.609 42.93,42.199 59.37,67.77 0.98,1.578 2.31,2.371 4.02,2.371 2.93,0 4.39,-1.453 4.39,-4.383 0,-0.848 -0.31,-1.699 -0.92,-2.551 -16.92,-26.43 -37.48,-49.699 -61.65,-69.777 -24.18,-20.102 -45.7,-30.153 -64.58,-30.153" /><path
         id="path458"
         style="fill:#FFFFFF;fill-opacity:1;fill-rule:nonzero;stroke:none"
         d="m 2160.54,381.082 c -12.3,0 -18.45,5.359 -18.45,16.078 0,3.531 1.34,7.641 4.02,12.328 2.68,4.684 8.16,7.032 16.44,7.032 12.3,0 18.45,-5.348 18.45,-16.079 0,-3.531 -1.34,-7.632 -4.02,-12.32 -2.68,-4.699 -8.16,-7.039 -16.44,-7.039 z m 6.76,-151.262 c -20.95,0 -31.42,23.989 -31.42,71.981 0,2.429 0.09,6.269 0.27,11.508 0.19,5.23 0.49,10.382 0.91,15.441 0.43,5.039 1.84,8.879 4.21,11.5 2.37,2.621 5.39,4.41 9.04,5.391 3.65,0.98 7.49,1.461 11.51,1.461 1.22,0 2.19,-0.403 2.93,-1.192 0.72,-0.789 1.09,-1.851 1.09,-3.191 -1.58,-15.59 -2.37,-29.59 -2.37,-42.02 0,-10.347 0.66,-20.578 2,-30.687 2.2,-17.172 6.7,-25.762 13.52,-25.762 4.63,0 11.08,3.961 19.37,11.879 19.12,18.391 38.79,43.473 59,75.262 0.98,1.578 2.26,2.371 3.84,2.371 2.92,0 4.39,-1.453 4.39,-4.383 0,-0.848 -0.25,-1.699 -0.74,-2.551 -41.16,-64.68 -73.68,-97.008 -97.55,-97.008" /><path
         id="path460"
         style="fill:#FFFFFF;fill-opacity:1;fill-rule:nonzero;stroke:none"
         d="m 2371.17,215.941 c -6.21,0 -11.56,1.95 -16.07,5.84 -6.7,5.848 -10.05,15.348 -10.05,28.5 0,13.399 1.95,29.41 5.85,48.051 4.38,22.039 6.57,39.758 6.57,53.156 0,9.981 -1.83,14.981 -5.48,14.981 -1.45,0 -3.04,-0.86 -4.74,-2.559 -5.85,-6.09 -11.58,-14.32 -17.18,-24.66 -12.3,-22.898 -23.02,-47.871 -32.15,-74.898 -5.61,-16.813 -14.74,-25.211 -27.4,-25.211 -11.09,0 -16.62,13.64 -16.62,40.918 0.36,32.761 1.71,50.242 4.01,52.429 0.98,0.852 2.07,1.274 3.29,1.274 5.36,0 10.48,-1.274 15.34,-3.821 4.27,-2.332 6.4,-5.191 6.4,-8.601 -1.1,-14 -1.71,-27.891 -1.83,-41.649 0,-10.953 0.43,-19.671 1.28,-26.121 2.68,3.782 4.82,8.039 6.4,12.789 10.96,33.371 24.47,62.961 40.55,88.782 11.21,18.031 22.54,27.039 33.98,27.039 4.99,0 9.38,-1.59 13.15,-4.75 4.39,-3.66 7.07,-8.532 8.04,-14.61 0.61,-3.289 0.92,-6.582 0.92,-9.871 0,-13.879 -2.26,-31.91 -6.77,-54.078 -2.92,-14.73 -4.8,-29.34 -5.65,-43.84 -0.13,-0.121 -0.19,-1.222 -0.19,-3.293 0,-1.816 0.09,-4.316 0.27,-7.488 0.19,-3.16 0.88,-6.328 2.11,-9.5 1.22,-3.16 3.4,-4.75 6.57,-4.75 2.56,0 5.36,1.281 8.41,3.84 16.68,14.371 40.74,46.89 72.15,97.551 0.98,1.578 2.32,2.371 4.03,2.371 0.85,0 1.64,-0.172 2.37,-0.543 1.45,-0.848 2.19,-2.129 2.19,-3.84 0,-0.719 -0.31,-1.578 -0.91,-2.551 -28.87,-45.18 -50.18,-75.199 -63.95,-90.066 -12.78,-13.883 -24.41,-20.821 -34.89,-20.821" /><path
         id="path462"
         style="fill:#FFFFFF;fill-opacity:1;fill-rule:nonzero;stroke:none"
         d="m 2479.87,12.8008 c 17.79,0 34.05,11.0781 48.78,33.2383 13.76,20.5898 24.54,45.8593 32.34,75.8199 8.76,33.243 13.88,67.039 15.34,101.391 -18.75,-14.5 -37.11,-29.879 -55.08,-46.141 -17.97,-16.25 -33.18,-34.187 -45.67,-53.789 -12.49,-19.601 -20,-41.5895 -22.56,-65.9489 -0.25,-2.9219 -0.36,-5.7227 -0.36,-8.4023 0,-11.4493 2.73,-20.8282 8.22,-28.1368 4.62,-5.3632 10.96,-8.0312 18.99,-8.0312 z M 2489.38,0 c -11.82,0 -21.2,2.5 -28.14,7.5 -11.93,8.5195 -17.9,22.3516 -17.9,41.4688 0,2.8007 0.12,5.6015 0.36,8.4023 2.69,25.4609 10.35,48.3199 23.02,68.5979 12.66,20.281 28.38,38.98 47.14,56.09 18.75,17.101 38.47,33.703 59.18,49.773 l 3.66,2.918 0.18,8.219 c 0,22.531 -1.95,42.929 -5.85,61.203 -4.14,19.848 -10.66,33 -19.55,39.469 -3.53,-2.692 -6.24,-6.192 -8.12,-10.512 -1.9,-4.328 -3.45,-8.547 -4.66,-12.699 -2.56,-9.008 -6.06,-19.45 -10.51,-31.321 -4.44,-11.879 -10.02,-22.961 -16.72,-33.257 -6.7,-10.293 -14.73,-17.442 -24.11,-21.461 -4.14,-1.582 -8.34,-2.371 -12.61,-2.371 -3.65,0 -7.05,0.851 -10.22,2.562 -9.86,5.719 -14.98,17.469 -15.35,35.25 0,18.027 3.2,35.867 9.59,53.52 6.4,17.66 14.71,32.398 24.94,44.207 13.03,14.98 27.4,22.472 43.12,22.472 7.55,0 14.12,-2.5 19.72,-7.492 0.98,-0.848 1.47,-1.879 1.47,-3.098 0,-1.222 -0.49,-2.351 -1.47,-3.382 -0.97,-1.039 -2.19,-1.547 -3.65,-1.547 -0.98,0 -1.9,0.297 -2.74,0.898 -2.56,2.078 -5.24,3.11 -8.04,3.11 -8.89,0 -17.24,-4.629 -25.03,-13.879 -7.79,-9.25 -14.31,-21.039 -19.54,-35.352 -5.25,-14.301 -8.59,-29.437 -10.05,-45.398 -0.49,-4.012 -0.73,-8.039 -0.73,-12.051 0,-1.711 0.06,-4.379 0.18,-8.039 0.12,-3.653 0.94,-7.52 2.46,-11.602 1.53,-4.078 4.11,-6.117 7.77,-6.117 2.31,0 4.87,1.156 7.67,3.477 14.13,14.492 25.76,38.722 34.9,72.703 1.58,5.476 3.65,10.777 6.21,15.886 5.72,11.704 14.3,17.543 25.76,17.543 6.57,0 12.18,-2.07 16.81,-6.211 15.45,-14.378 24.05,-45.121 25.75,-92.261 31.67,25.82 55.23,50.551 70.7,74.172 0.97,1.578 2.31,2.371 4.01,2.371 0.85,0 1.65,-0.242 2.39,-0.723 1.45,-0.73 2.18,-1.949 2.18,-3.66 0,-0.848 -0.3,-1.699 -0.91,-2.551 -10.23,-15.469 -22.13,-29.84 -35.72,-43.109 -13.57,-13.289 -27.73,-25.879 -42.47,-37.828 v -2.551 c 0,-23.871 -1.71,-47.129 -5.11,-69.781 -4.75,-33.86 -13.16,-65.7 -25.21,-95.5473 -15.71,-38.7304 -36.47,-63.332 -62.3,-73.80076 C 2504.53,1.41016 2497.05,0 2489.38,0" /><path
         id="path464"
         style="fill:#FFFFFF;fill-opacity:1;fill-rule:nonzero;stroke:none"
         d="m 2800.12,328.828 c 17.78,0 31.9,6.344 42.38,19.012 8.77,10.59 13.15,22.469 13.15,35.621 0,5.238 -1.25,9.949 -3.75,14.148 -2.5,4.211 -6.91,6.313 -13.24,6.313 -10.59,0 -20.21,-8.774 -28.87,-26.313 -7.79,-15.711 -12.72,-31.968 -14.79,-48.781 z m 13.33,-120.379 c -5.24,0 -10.23,1.102 -14.98,3.281 -10.47,5 -18.33,13.59 -23.57,25.77 -7.06,16.559 -10.59,36.66 -10.59,60.281 0,12.91 1.76,27.16 5.3,42.75 4.63,20.821 11.99,38.289 22.1,52.418 11.93,16.813 26.67,25.223 44.21,25.223 7.43,0 13.34,-1.774 17.72,-5.301 7.55,-6.09 11.33,-15.59 11.33,-28.5 0,-15.473 -5.19,-29.41 -15.53,-41.84 -12.79,-15.222 -29.23,-22.832 -49.32,-22.832 h -6.59 c -0.97,-6.82 -1.45,-14.679 -1.45,-23.558 0,-19.012 2.73,-35.961 8.22,-50.879 5.48,-14.922 13.58,-22.383 24.3,-22.383 15.1,0 36.4,16.082 63.93,48.23 15.59,18.141 30.63,38.243 45.12,60.282 0.98,1.578 2.26,2.371 3.84,2.371 0.85,0 1.71,-0.242 2.56,-0.723 1.34,-0.73 2.01,-1.949 2.01,-3.66 0,-0.848 -0.24,-1.699 -0.73,-2.551 -22.66,-35.808 -47.2,-65.887 -73.62,-90.246 -9.02,-8.402 -17.72,-15.191 -26.13,-20.363 -8.4,-5.18 -17.78,-7.77 -28.13,-7.77" /><path
         id="path466"
         style="fill:#FFFFFF;fill-opacity:1;fill-rule:nonzero;stroke:none"
         d="m 2961.42,352.039 c 10.6,9.5 20.46,19.231 29.6,29.223 33.61,37.027 60.03,76.429 79.28,118.199 11.94,25.82 17.9,49.629 17.9,71.43 0,5.597 -0.54,11.781 -1.64,18.539 -1.1,6.761 -4.38,12.761 -9.86,18 -5.49,5.23 -14.02,7.851 -25.58,7.851 -9.01,0 -17.23,-3.601 -24.66,-10.769 -14.25,-13.891 -26.43,-37.524 -36.54,-70.891 -8.89,-29.101 -15.9,-61.93 -21,-98.461 -4.27,-30.328 -6.77,-58.039 -7.5,-83.121 z m 13.71,-134.098 c -10.48,0 -18.95,6.219 -25.4,18.641 -4.99,9.5 -8.59,20.277 -10.77,32.34 -3.79,19.726 -5.67,40.918 -5.67,63.566 0,64.551 8.59,126.242 25.75,185.051 16.2,56.031 40.07,90.25 71.61,102.672 6.95,2.801 14.08,4.211 21.38,4.211 30.32,0 45.49,-17.481 45.49,-52.434 0,-23.258 -6.15,-48.238 -18.45,-74.906 -19.61,-42.871 -46.77,-83.422 -81.47,-121.672 -11.21,-12.289 -23.39,-23.988 -36.55,-35.058 v -4.942 c 0,-33.738 3.35,-60.89 10.05,-81.469 4.14,-12.671 9.38,-19 15.72,-19 11.8,0 31.11,19.18 57.91,57.547 13.76,19.723 22.52,32.692 26.3,38.903 0.85,1.578 2.19,2.371 4.02,2.371 0.85,0 1.65,-0.242 2.37,-0.723 1.47,-0.73 2.2,-1.949 2.2,-3.66 0,-0.848 -0.3,-1.699 -0.92,-2.551 -16.19,-25.828 -34.04,-50.43 -53.53,-73.808 -19.48,-23.379 -36.17,-35.079 -50.04,-35.079" /><path
         id="path468"
         style="fill:#FFFFFF;fill-opacity:1;fill-rule:nonzero;stroke:none"
         d="m 3100.81,329.02 c 14.61,0 26.79,4.5 36.53,13.511 6.1,5.61 10.54,12.43 13.34,20.457 2.19,6.703 3.29,13.34 3.29,19.922 0,2.922 -0.83,5.442 -2.47,7.578 -1.64,2.133 -4.11,3.203 -7.4,3.203 -4.26,0 -8.97,-1.562 -14.15,-4.66 -5.18,-3.109 -9.9,-7.949 -14.16,-14.519 -8.9,-13.891 -14.68,-29.051 -17.35,-45.492 z m 17.72,-102.122 c -9.74,0 -18.45,2.743 -26.13,8.223 -16.43,11.688 -24.66,32.82 -24.66,63.391 0,29.347 6.76,55.289 20.28,77.816 13.03,21.801 30.45,32.711 52.25,32.711 8.76,0 15.76,-2.75 21.01,-8.219 4.5,-4.519 6.76,-10.422 6.76,-17.73 0,-8.039 -1.83,-16.07 -5.48,-24.11 -3.9,-8.531 -9.69,-16.07 -17.35,-22.66 -12.92,-10.949 -29,-16.429 -48.24,-16.429 -1.09,-8.039 -1.64,-16.141 -1.64,-24.301 0,-7.309 0.73,-15.289 2.19,-23.93 1.46,-8.66 4.81,-16.109 10.05,-22.379 5.23,-6.281 12.12,-9.41 20.64,-9.41 13.4,0 29.78,8.039 49.14,24.109 23.5,19.36 43.42,41.84 59.74,67.411 0.98,1.578 2.31,2.371 4.01,2.371 0.85,0 1.65,-0.172 2.39,-0.543 1.45,-0.848 2.18,-2.129 2.18,-3.84 0,-0.848 -0.3,-1.699 -0.9,-2.551 -16.94,-26.43 -37.4,-49.699 -61.39,-69.777 -24,-20.102 -45.61,-30.153 -64.85,-30.153" /><path
         id="path470"
         style="fill:#FFFFFF;fill-opacity:1;fill-rule:nonzero;stroke:none"
         d="m 3254.63,12.8008 c 17.78,0 34.03,11.0781 48.78,33.2383 13.76,20.5898 24.53,45.8593 32.33,75.8199 8.77,33.243 13.88,67.039 15.34,101.391 -18.76,-14.5 -37.12,-29.879 -55.08,-46.141 -17.96,-16.25 -33.19,-34.187 -45.67,-53.789 -12.48,-19.601 -20,-41.5895 -22.56,-65.9489 -0.24,-2.9219 -0.36,-5.7227 -0.36,-8.4023 0,-11.4493 2.74,-20.8282 8.22,-28.1368 4.62,-5.3632 10.96,-8.0312 19,-8.0312 z M 3264.13,0 c -11.82,0 -21.19,2.5 -28.13,7.5 -11.94,8.5195 -17.9,22.3516 -17.9,41.4688 0,2.8007 0.11,5.6015 0.36,8.4023 2.67,25.4609 10.35,48.3199 23.01,68.5979 12.67,20.281 28.38,38.98 47.13,56.09 18.76,17.101 38.49,33.703 59.19,49.773 l 3.66,2.918 0.18,8.219 c 0,22.531 -1.95,42.929 -5.85,61.203 -4.14,19.848 -10.65,33 -19.54,39.469 -3.53,-2.692 -6.24,-6.192 -8.14,-10.512 -1.88,-4.328 -3.43,-8.547 -4.65,-12.699 -2.56,-9.008 -6.06,-19.45 -10.5,-31.321 -4.45,-11.879 -10.02,-22.961 -16.72,-33.257 -6.7,-10.293 -14.74,-17.442 -24.11,-21.461 -4.14,-1.582 -8.35,-2.371 -12.61,-2.371 -3.65,0 -7.06,0.851 -10.23,2.562 -9.87,5.719 -14.97,17.469 -15.35,35.25 0,18.027 3.2,35.867 9.6,53.52 6.39,17.66 14.7,32.398 24.94,44.207 13.02,14.98 27.4,22.472 43.1,22.472 7.56,0 14.13,-2.5 19.74,-7.492 0.97,-0.848 1.45,-1.879 1.45,-3.098 0,-1.222 -0.48,-2.351 -1.45,-3.382 -0.98,-1.039 -2.2,-1.547 -3.65,-1.547 -0.98,0 -1.9,0.297 -2.75,0.898 -2.56,2.078 -5.23,3.11 -8.03,3.11 -8.9,0 -17.24,-4.629 -25.03,-13.879 -7.8,-9.25 -14.31,-21.039 -19.55,-35.352 -5.24,-14.301 -8.59,-29.437 -10.05,-45.398 -0.48,-4.012 -0.73,-8.039 -0.73,-12.051 0,-1.711 0.06,-4.379 0.19,-8.039 0.12,-3.653 0.94,-7.52 2.46,-11.602 1.52,-4.078 4.11,-6.117 7.76,-6.117 2.32,0 4.88,1.156 7.68,3.477 14.12,14.492 25.75,38.722 34.89,72.703 1.58,5.476 3.65,10.777 6.21,15.886 5.72,11.704 14.31,17.543 25.75,17.543 6.59,0 12.18,-2.07 16.81,-6.211 15.47,-14.378 24.05,-45.121 25.76,-92.261 31.66,25.82 55.24,50.551 70.71,74.172 0.96,1.578 2.3,2.371 4.01,2.371 0.85,0 1.64,-0.242 2.37,-0.723 1.47,-0.73 2.2,-1.949 2.2,-3.66 0,-0.848 -0.31,-1.699 -0.92,-2.551 -10.22,-15.469 -22.14,-29.84 -35.71,-43.109 -13.59,-13.289 -27.73,-25.879 -42.47,-37.828 v -2.551 c 0,-23.871 -1.71,-47.129 -5.12,-69.781 -4.75,-33.86 -13.15,-65.7 -25.21,-95.5473 -15.71,-38.7304 -36.48,-63.332 -62.3,-73.80076 C 3279.29,1.41016 3271.8,0 3264.13,0" /><path
         id="path472"
         style="fill:#FFFFFF;fill-opacity:1;fill-rule:nonzero;stroke:none"
         d="m 3576.88,243.52 c -15.23,0 -25.09,9.199 -29.6,27.589 -2.19,8.891 -3.29,19.723 -3.29,32.52 0,7.301 0.31,14.359 0.91,21.191 -8.28,-17.422 -17.78,-31.91 -28.49,-43.48 -13.52,-14.5 -27.95,-21.75 -43.31,-21.75 -9.13,0 -16.43,2.75 -21.91,8.23 -6.58,6.821 -9.87,16.071 -9.87,27.77 0,6.57 1.1,13.82 3.29,21.742 2.2,7.906 5.23,15.398 9.14,22.469 8.27,14.847 19.15,26.91 32.61,36.168 13.45,9.25 28.46,13.883 45.03,13.883 8.52,0 16.37,-2.372 23.56,-7.122 1.09,-0.859 1.71,-1.949 1.83,-3.289 0,-1.101 -0.43,-2.132 -1.28,-3.113 -1.1,-1.328 -2.37,-2.008 -3.84,-2.008 -0.98,0 -1.83,0.25 -2.56,0.731 -3.41,2.07 -7.25,3.109 -11.5,3.109 -3.29,0 -8.01,-1.012 -14.16,-3.019 -6.16,-2 -12.09,-5.2 -17.81,-9.59 -11.09,-8.52 -19.67,-18.629 -25.76,-30.321 -6.7,-13.039 -10.36,-26.671 -10.96,-40.921 0,-3.047 0.37,-6.25 1.09,-9.59 0.73,-3.36 2.28,-6.34 4.66,-8.949 2.38,-2.622 5.57,-3.93 9.6,-3.93 3.28,0 6.38,0.789 9.31,2.371 11.08,6.82 20.64,16.379 28.68,28.687 9.38,14.243 16.08,27.043 20.09,38.352 1.34,4.031 3.41,7.98 6.21,11.879 5.97,7.551 14.08,11.332 24.3,11.332 1.34,0 2.4,-0.43 3.2,-1.281 0.8,-0.848 1.19,-1.942 1.19,-3.289 -3.54,-22.403 -5.3,-41.961 -5.3,-58.641 0,-4.629 0.25,-10.289 0.73,-16.988 0.48,-6.703 2.04,-12.973 4.66,-18.821 2.62,-5.851 6.79,-8.769 12.51,-8.769 5.48,0 12.24,3.109 20.28,9.316 19.12,15.102 37.63,36.91 55.53,65.403 1.1,1.578 2.45,2.371 4.03,2.371 0.85,0 1.64,-0.242 2.37,-0.723 1.47,-0.73 2.19,-1.949 2.19,-3.66 0,-0.848 -0.31,-1.699 -0.91,-2.551 -13.64,-21.066 -27.22,-38.609 -40.74,-52.617 -19.61,-20.461 -38.18,-30.691 -55.71,-30.691" /><path
         id="path474"
         style="fill:#FFFFFF;fill-opacity:1;fill-rule:nonzero;stroke:none"
         d="m 3779.47,215.941 c -6.21,0 -11.57,1.95 -16.07,5.84 -6.7,5.848 -10.05,15.348 -10.05,28.5 0,13.399 1.95,29.41 5.85,48.051 4.38,22.039 6.57,39.758 6.57,53.156 0,9.981 -1.82,14.981 -5.48,14.981 -1.46,0 -3.04,-0.86 -4.74,-2.559 -5.85,-6.09 -11.58,-14.32 -17.18,-24.66 -12.31,-22.898 -23.02,-47.871 -32.15,-74.898 -5.61,-16.813 -14.74,-25.211 -27.4,-25.211 -11.09,0 -16.62,13.64 -16.62,40.918 0.36,32.761 1.7,50.242 4.01,52.429 0.98,0.852 2.07,1.274 3.29,1.274 5.35,0 10.47,-1.274 15.34,-3.821 4.27,-2.332 6.4,-5.191 6.4,-8.601 -1.09,-14 -1.71,-27.891 -1.83,-41.649 0,-10.953 0.42,-19.671 1.28,-26.121 2.68,3.782 4.81,8.039 6.4,12.789 10.96,33.371 24.47,62.961 40.55,88.782 11.21,18.031 22.53,27.039 33.98,27.039 4.99,0 9.38,-1.59 13.16,-4.75 4.38,-3.66 7.06,-8.532 8.03,-14.61 0.61,-3.289 0.91,-6.582 0.91,-9.871 0,-13.879 -2.26,-31.91 -6.76,-54.078 -2.92,-14.73 -4.81,-29.34 -5.66,-43.84 -0.12,-0.121 -0.18,-1.222 -0.18,-3.293 0,-1.816 0.09,-4.316 0.28,-7.488 0.17,-3.16 0.88,-6.328 2.1,-9.5 1.21,-3.16 3.4,-4.75 6.57,-4.75 2.56,0 5.36,1.281 8.41,3.84 16.68,14.371 40.73,46.89 72.15,97.551 0.98,1.578 2.32,2.371 4.02,2.371 0.85,0 1.65,-0.172 2.38,-0.543 1.46,-0.848 2.19,-2.129 2.19,-3.84 0,-0.719 -0.3,-1.578 -0.91,-2.551 -28.87,-45.18 -50.18,-75.199 -63.95,-90.066 -12.78,-13.883 -24.41,-20.821 -34.89,-20.821" /><path
         id="path476"
         style="fill:#FFFFFF;fill-opacity:1;fill-rule:nonzero;stroke:none"
         d="m 3917.58,226.898 c -9.63,0 -18.27,2.743 -25.95,8.223 -16.43,11.809 -24.66,33 -24.66,63.578 0,14.492 2.19,30.383 6.57,47.672 6.59,25.699 18.28,43.91 35.08,54.617 8.53,5.492 17.47,8.223 26.86,8.223 0.6,0 3.52,-0.082 8.77,-0.27 5.23,-0.191 11.87,-3.132 19.91,-8.863 1.21,-0.859 1.83,-1.949 1.83,-3.289 0,-1.09 -0.38,-2.129 -1.1,-3.098 -1.1,-1.339 -2.44,-2.019 -4.02,-2.019 -0.85,0 -1.71,0.25 -2.56,0.738 -4.5,2.93 -9.01,4.379 -13.52,4.379 -3.29,0 -7.79,-1.34 -13.51,-4.008 -5.73,-2.691 -11.15,-7.922 -16.26,-15.711 -6.1,-9.14 -10.6,-19.179 -13.53,-30.148 -4.38,-16.203 -6.57,-32.281 -6.57,-48.223 0,-1.961 0.06,-5.488 0.19,-10.597 0.11,-5.122 1.21,-11.571 3.28,-19.364 2.07,-7.797 5.49,-14.289 10.23,-19.457 4.75,-5.179 11.26,-7.761 19.55,-7.761 8.16,0 16.68,2.3 25.58,6.929 8.89,4.633 16.62,9.692 23.19,15.172 23.15,19.609 42.93,42.199 59.38,67.77 0.97,1.578 2.31,2.371 4.01,2.371 2.93,0 4.39,-1.453 4.39,-4.383 0,-0.848 -0.31,-1.699 -0.91,-2.551 -16.93,-26.43 -37.48,-49.699 -61.66,-69.777 -24.17,-20.102 -45.69,-30.153 -64.57,-30.153" /><path
         id="path478"
         style="fill:#FFFFFF;fill-opacity:1;fill-rule:nonzero;stroke:none"
         d="m 4066.09,329.02 c 14.62,0 26.8,4.5 36.55,13.511 6.08,5.61 10.52,12.43 13.33,20.457 2.19,6.703 3.29,13.34 3.29,19.922 0,2.922 -0.82,5.442 -2.47,7.578 -1.64,2.133 -4.12,3.203 -7.4,3.203 -4.26,0 -8.98,-1.562 -14.16,-4.66 -5.17,-3.109 -9.89,-7.949 -14.16,-14.519 -8.88,-13.891 -14.67,-29.051 -17.35,-45.492 z m 17.73,-102.122 c -9.75,0 -18.46,2.743 -26.12,8.223 -16.45,11.688 -24.67,32.82 -24.67,63.391 0,29.347 6.75,55.289 20.28,77.816 13.03,21.801 30.44,32.711 52.25,32.711 8.77,0 15.77,-2.75 21,-8.219 4.5,-4.519 6.76,-10.422 6.76,-17.73 0,-8.039 -1.83,-16.07 -5.48,-24.11 -3.89,-8.531 -9.68,-16.07 -17.35,-22.66 -12.91,-10.949 -28.99,-16.429 -48.24,-16.429 -1.09,-8.039 -1.64,-16.141 -1.64,-24.301 0,-7.309 0.74,-15.289 2.19,-23.93 1.47,-8.66 4.82,-16.109 10.05,-22.379 5.24,-6.281 12.12,-9.41 20.65,-9.41 13.39,0 29.77,8.039 49.14,24.109 23.5,19.36 43.41,41.84 59.73,67.411 0.98,1.578 2.32,2.371 4.03,2.371 0.85,0 1.64,-0.172 2.37,-0.543 1.46,-0.848 2.2,-2.129 2.2,-3.84 0,-0.848 -0.32,-1.699 -0.92,-2.551 -16.94,-26.43 -37.39,-49.699 -61.38,-69.777 -23.99,-20.102 -45.61,-30.153 -64.85,-30.153" /></g></g></svg>